<?xml version="1.0" encoding="UTF-8" standalone="no"?>
<!DOCTYPE svg PUBLIC "-//W3C//DTD SVG 1.1//EN" "http://www.w3.org/Graphics/SVG/1.1/DTD/svg11.dtd">
<svg width="100%" height="100%" viewBox="0 0 2370 2527" version="1.1" xmlns="http://www.w3.org/2000/svg" xmlns:xlink="http://www.w3.org/1999/xlink" xml:space="preserve" xmlns:serif="http://www.serif.com/" style="fill-rule:evenodd;clip-rule:evenodd;stroke-linecap:round;stroke-linejoin:round;stroke-miterlimit:1.5;">
    <g transform="matrix(1,0,0,1,-90.4167,-86.7048)">
        <g transform="matrix(1.21469,0,0,1.18758,-290.127,-298.364)">
            <path d="M2262,376.523L2262,2399.48C2262,2427.36 2239.87,2450 2212.61,2450L364.395,2450C337.133,2450 315,2427.36 315,2399.48L315,376.523C315,348.639 337.133,326 364.395,326L2212.61,326C2239.87,326 2262,348.639 2262,376.523Z" style="fill:rgb(86,180,233);stroke:black;stroke-width:3.47px;"/>
        </g>
        <g id="Step-3" serif:id="Step 3" transform="matrix(1,0,0,1,0,50.7514)">
            <g transform="matrix(1.17289,0,0,0.331134,-236.268,1708.49)">
                <path d="M2262,416.598L2262,2359.4C2262,2409.4 2250.54,2450 2236.42,2450L340.578,2450C326.461,2450 315,2409.4 315,2359.4L315,416.598C315,366.596 326.461,326 340.578,326L2236.42,326C2250.54,326 2262,366.596 2262,416.598Z" style="fill:white;stroke:black;stroke-width:4.83px;"/>
            </g>
            <g transform="matrix(1.21469,0,0,1.21469,-1080.28,1377.94)">
                <g transform="matrix(75,0,0,75,1732.67,451.687)">
                </g>
                <g transform="matrix(75,0,0,75,1757.65,451.687)">
                </g>
                <g transform="matrix(75,0,0,75,2511.82,451.687)">
                </g>
                <text x="1365.91px" y="451.687px" style="font-family:'Arial-BoldMT', 'Arial', sans-serif;font-weight:700;font-size:75px;">Step 3: Deﬁne Subset (Optional)</text>
            </g>
            <g transform="matrix(1.21469,0,0,1.21469,-896.667,1658.47)">
                <text x="1056.99px" y="434.831px" style="font-family:'Arial-BoldMT', 'Arial', sans-serif;font-weight:700;font-size:51.453px;">Select Subset</text>
                <text x="1089.89px" y="487.968px" style="font-family:'Arial-BoldMT', 'Arial', sans-serif;font-weight:700;font-size:51.453px;">Criteria (by</text>
                <text x="1081.32px" y="541.105px" style="font-family:'Arial-BoldMT', 'Arial', sans-serif;font-weight:700;font-size:51.453px;">Metadata or</text>
                <g transform="matrix(51.4535,0,0,51.4535,1372.97,594.242)">
                </g>
                <text x="1078.44px" y="594.242px" style="font-family:'Arial-BoldMT', 'Arial', sans-serif;font-weight:700;font-size:51.453px;">Expression)</text>
            </g>
            <g transform="matrix(0.636248,0,1.00449e-16,0.486002,-61.7959,1731.89)">
                <path d="M1732.2,1129.42L1732.2,1055.58L2138.88,1055.58L2138.88,987L2242,1092.5L2138.88,1198L2138.88,1129.42L1732.2,1129.42Z" style="fill:white;stroke:black;stroke-width:3.68px;"/>
            </g>
            <g transform="matrix(1,0,0,1,-72.6689,-62)">
                <g transform="matrix(1.21469,0,0,1.21469,-223.691,1269.12)">
                    <g id="Cell" transform="matrix(0.202012,0,0,0.202012,1675.03,604.742)">
                        <g transform="matrix(1,0,0,1,-182,150)">
                            <path d="M850,536C932.042,530.361 986.935,583.665 999,639.5C1001.74,652.16 1000.46,672.461 993.882,683.939C985.929,697.818 970.685,702.493 951.408,713.139C925.615,727.383 890.809,737.995 850,743C768.376,753.011 704.489,696.517 701,639.5C697.551,583.135 730.34,544.225 850,536Z" style="fill:rgb(133,153,251);stroke:black;stroke-width:5.09px;"/>
                        </g>
                        <g transform="matrix(1,0,0,1,19,-24)">
                            <ellipse cx="681" cy="792" rx="61" ry="49" style="fill:rgb(76,93,178);"/>
                        </g>
                    </g>
                    <g id="Cell1" serif:id="Cell" transform="matrix(0.202012,0,0,0.202012,1747.95,599.086)">
                        <g transform="matrix(1,0,0,1,-182,150)">
                            <path d="M850,536C932.042,530.361 986.935,583.665 999,639.5C1001.74,652.16 1000.46,672.461 993.882,683.939C985.929,697.818 970.685,702.493 951.408,713.139C925.615,727.383 890.809,737.995 850,743C768.376,753.011 704.489,696.517 701,639.5C697.551,583.135 730.34,544.225 850,536Z" style="fill:rgb(133,153,251);stroke:black;stroke-width:5.09px;"/>
                        </g>
                        <g transform="matrix(1,0,0,1,19,-24)">
                            <ellipse cx="681" cy="792" rx="61" ry="49" style="fill:rgb(76,93,178);"/>
                        </g>
                    </g>
                    <g id="Cell2" serif:id="Cell" transform="matrix(0.202012,0,0,0.202012,1768.56,557.269)">
                        <g transform="matrix(1,0,0,1,-182,150)">
                            <path d="M850,536C932.042,530.361 986.935,583.665 999,639.5C1001.74,652.16 1000.46,672.461 993.882,683.939C985.929,697.818 970.685,702.493 951.408,713.139C925.615,727.383 890.809,737.995 850,743C768.376,753.011 704.489,696.517 701,639.5C697.551,583.135 730.34,544.225 850,536Z" style="fill:rgb(133,153,251);stroke:black;stroke-width:5.09px;"/>
                        </g>
                        <g transform="matrix(1,0,0,1,19,-24)">
                            <ellipse cx="681" cy="792" rx="61" ry="49" style="fill:rgb(76,93,178);"/>
                        </g>
                    </g>
                    <g id="Cell3" serif:id="Cell" transform="matrix(0.202012,0,0,0.202012,1620.08,578.48)">
                        <g transform="matrix(1,0,0,1,-182,150)">
                            <path d="M850,536C932.042,530.361 986.935,583.665 999,639.5C1001.74,652.16 1000.46,672.461 993.882,683.939C985.929,697.818 970.685,702.493 951.408,713.139C925.615,727.383 890.809,737.995 850,743C768.376,753.011 704.489,696.517 701,639.5C697.551,583.135 730.34,544.225 850,536Z" style="fill:rgb(133,153,251);stroke:black;stroke-width:5.09px;"/>
                        </g>
                        <g transform="matrix(1,0,0,1,19,-24)">
                            <ellipse cx="681" cy="792" rx="61" ry="49" style="fill:rgb(76,93,178);"/>
                        </g>
                    </g>
                    <g id="Cell4" serif:id="Cell" transform="matrix(0.202012,0,0,0.202012,1706.14,559.491)">
                        <g transform="matrix(1,0,0,1,-182,150)">
                            <path d="M850,536C932.042,530.361 986.935,583.665 999,639.5C1001.74,652.16 1000.46,672.461 993.882,683.939C985.929,697.818 970.685,702.493 951.408,713.139C925.615,727.383 890.809,737.995 850,743C768.376,753.011 704.489,696.517 701,639.5C697.551,583.135 730.34,544.225 850,536Z" style="fill:rgb(133,153,251);stroke:black;stroke-width:5.09px;"/>
                        </g>
                        <g transform="matrix(1,0,0,1,19,-24)">
                            <ellipse cx="681" cy="792" rx="61" ry="49" style="fill:rgb(76,93,178);"/>
                        </g>
                    </g>
                    <g id="Cell5" serif:id="Cell" transform="matrix(0.160066,0,0,0.160066,1670.32,565.888)">
                        <g transform="matrix(1,0,0,1,-182,150)">
                            <path d="M850,536C932.042,530.361 986.935,583.665 999,639.5C1001.74,652.16 1000.46,672.461 993.882,683.939C985.929,697.818 970.685,702.493 951.408,713.139C925.615,727.383 890.809,737.995 850,743C768.376,753.011 704.489,696.517 701,639.5C697.551,583.135 730.34,544.225 850,536Z" style="fill:rgb(133,153,251);stroke:black;stroke-width:6.43px;"/>
                        </g>
                        <g transform="matrix(1,0,0,1,19,-24)">
                            <ellipse cx="681" cy="792" rx="61" ry="49" style="fill:rgb(76,93,178);"/>
                        </g>
                    </g>
                    <g id="Cell6" serif:id="Cell" transform="matrix(0.213288,0,0,0.207029,1795.75,720.653)">
                        <g transform="matrix(1,0,0,1,-182,150)">
                            <path d="M850,536C932.042,530.361 986.935,583.665 999,639.5C1001.74,652.16 1000.46,672.461 993.882,683.939C985.929,697.818 970.685,702.493 951.408,713.139C925.615,727.383 890.809,737.995 850,743C768.376,753.011 704.489,696.517 701,639.5C697.551,583.135 730.34,544.225 850,536Z" style="fill:rgb(185,219,255);stroke:black;stroke-width:4.9px;"/>
                        </g>
                        <g transform="matrix(1,0,0,1,19,-24)">
                            <ellipse cx="681" cy="792" rx="61" ry="49" style="fill:rgb(81,116,153);"/>
                        </g>
                    </g>
                    <g id="Cell7" serif:id="Cell" transform="matrix(0.213288,0,0,0.207029,1741.27,746.225)">
                        <g transform="matrix(1,0,0,1,-182,150)">
                            <path d="M850,536C932.042,530.361 986.935,583.665 999,639.5C1001.74,652.16 1000.46,672.461 993.882,683.939C985.929,697.818 970.685,702.493 951.408,713.139C925.615,727.383 890.809,737.995 850,743C768.376,753.011 704.489,696.517 701,639.5C697.551,583.135 730.34,544.225 850,536Z" style="fill:rgb(185,219,255);stroke:black;stroke-width:4.9px;"/>
                        </g>
                        <g transform="matrix(1,0,0,1,19,-24)">
                            <ellipse cx="681" cy="792" rx="61" ry="49" style="fill:rgb(81,116,153);"/>
                        </g>
                    </g>
                    <g id="Cell8" serif:id="Cell" transform="matrix(0.213288,0,0,0.207029,1854.98,691.203)">
                        <g transform="matrix(1,0,0,1,-182,150)">
                            <path d="M850,536C932.042,530.361 986.935,583.665 999,639.5C1001.74,652.16 1000.46,672.461 993.882,683.939C985.929,697.818 970.685,702.493 951.408,713.139C925.615,727.383 890.809,737.995 850,743C768.376,753.011 704.489,696.517 701,639.5C697.551,583.135 730.34,544.225 850,536Z" style="fill:rgb(185,219,255);stroke:black;stroke-width:4.9px;"/>
                        </g>
                        <g transform="matrix(1,0,0,1,19,-24)">
                            <ellipse cx="681" cy="792" rx="61" ry="49" style="fill:rgb(81,116,153);"/>
                        </g>
                    </g>
                    <g id="Cell9" serif:id="Cell" transform="matrix(0.213288,0,0,0.207029,1798.96,664.662)">
                        <g transform="matrix(1,0,0,1,-182,150)">
                            <path d="M850,536C932.042,530.361 986.935,583.665 999,639.5C1001.74,652.16 1000.46,672.461 993.882,683.939C985.929,697.818 970.685,702.493 951.408,713.139C925.615,727.383 890.809,737.995 850,743C768.376,753.011 704.489,696.517 701,639.5C697.551,583.135 730.34,544.225 850,536Z" style="fill:rgb(185,219,255);stroke:black;stroke-width:4.9px;"/>
                        </g>
                        <g transform="matrix(1,0,0,1,19,-24)">
                            <ellipse cx="681" cy="792" rx="61" ry="49" style="fill:rgb(81,116,153);"/>
                        </g>
                    </g>
                    <g id="Cell10" serif:id="Cell" transform="matrix(0.213288,0,0,0.207029,1727.58,699.063)">
                        <g transform="matrix(1,0,0,1,-182,150)">
                            <path d="M850,536C932.042,530.361 986.935,583.665 999,639.5C1001.74,652.16 1000.46,672.461 993.882,683.939C985.929,697.818 970.685,702.493 951.408,713.139C925.615,727.383 890.809,737.995 850,743C768.376,753.011 704.489,696.517 701,639.5C697.551,583.135 730.34,544.225 850,536Z" style="fill:rgb(185,219,255);stroke:black;stroke-width:4.9px;"/>
                        </g>
                        <g transform="matrix(1,0,0,1,19,-24)">
                            <ellipse cx="681" cy="792" rx="61" ry="49" style="fill:rgb(81,116,153);"/>
                        </g>
                    </g>
                    <g id="Cell11" serif:id="Cell" transform="matrix(0.188824,0,0,0.188824,1515.47,703.973)">
                        <g transform="matrix(1,0,0,1,-182,150)">
                            <path d="M850,536C932.042,530.361 986.935,583.665 999,639.5C1001.74,652.16 1000.46,672.461 993.882,683.939C985.929,697.818 970.685,702.493 951.408,713.139C925.615,727.383 890.809,737.995 850,743C768.376,753.011 704.489,696.517 701,639.5C697.551,583.135 730.34,544.225 850,536Z" style="fill:rgb(255,190,190);stroke:black;stroke-width:5.45px;"/>
                        </g>
                        <g transform="matrix(1.54569,0,0,1.40416,-385.902,-324.289)">
                            <ellipse cx="681" cy="792" rx="61" ry="49" style="fill:rgb(162,78,78);"/>
                        </g>
                    </g>
                    <g id="Cell12" serif:id="Cell" transform="matrix(0.205123,0,0,0.205123,1574.28,665.969)">
                        <g transform="matrix(1,0,0,1,-182,150)">
                            <path d="M850,536C932.042,530.361 986.935,583.665 999,639.5C1001.74,652.16 1000.46,672.461 993.882,683.939C985.929,697.818 970.685,702.493 951.408,713.139C925.615,727.383 890.809,737.995 850,743C768.376,753.011 704.489,696.517 701,639.5C697.551,583.135 730.34,544.225 850,536Z" style="fill:rgb(255,190,190);stroke:black;stroke-width:5.02px;"/>
                        </g>
                        <g transform="matrix(1.55522,0,0,1.64019,-392.971,-499.661)">
                            <ellipse cx="681" cy="792" rx="61" ry="49" style="fill:rgb(162,78,78);"/>
                        </g>
                    </g>
                    <g id="Cell13" serif:id="Cell" transform="matrix(0.205123,0,0,0.205123,1482.39,747.929)">
                        <g transform="matrix(1,0,0,1,-182,150)">
                            <path d="M850,536C932.042,530.361 986.935,583.665 999,639.5C1001.74,652.16 1000.46,672.461 993.882,683.939C985.929,697.818 970.685,702.493 951.408,713.139C925.615,727.383 890.809,737.995 850,743C768.376,753.011 704.489,696.517 701,639.5C697.551,583.135 730.34,544.225 850,536Z" style="fill:rgb(255,190,190);stroke:black;stroke-width:5.02px;"/>
                        </g>
                        <g transform="matrix(1.55522,0,0,1.64019,-392.971,-499.661)">
                            <ellipse cx="681" cy="792" rx="61" ry="49" style="fill:rgb(162,78,78);"/>
                        </g>
                    </g>
                    <g id="Cell14" serif:id="Cell" transform="matrix(0.205123,0,0,0.205123,1633.45,687.653)">
                        <g transform="matrix(1,0,0,1,-182,150)">
                            <path d="M850,536C932.042,530.361 986.935,583.665 999,639.5C1001.74,652.16 1000.46,672.461 993.882,683.939C985.929,697.818 970.685,702.493 951.408,713.139C925.615,727.383 890.809,737.995 850,743C768.376,753.011 704.489,696.517 701,639.5C697.551,583.135 730.34,544.225 850,536Z" style="fill:rgb(255,190,190);stroke:black;stroke-width:5.02px;"/>
                        </g>
                        <g transform="matrix(1.55522,0,0,1.64019,-392.971,-499.661)">
                            <ellipse cx="681" cy="792" rx="61" ry="49" style="fill:rgb(162,78,78);"/>
                        </g>
                    </g>
                    <g id="Cell15" serif:id="Cell" transform="matrix(0.259352,0,0,0.259352,1527.77,675.835)">
                        <g transform="matrix(1,0,0,1,-182,150)">
                            <path d="M850,536C932.042,530.361 986.935,583.665 999,639.5C1001.74,652.16 1000.46,672.461 993.882,683.939C985.929,697.818 970.685,702.493 951.408,713.139C925.615,727.383 890.809,737.995 850,743C768.376,753.011 704.489,696.517 701,639.5C697.551,583.135 730.34,544.225 850,536Z" style="fill:rgb(255,190,190);stroke:black;stroke-width:3.97px;"/>
                        </g>
                        <g transform="matrix(1.66249,0,0,1.53647,-472.565,-422.6)">
                            <ellipse cx="681" cy="792" rx="61" ry="49" style="fill:rgb(162,78,78);"/>
                        </g>
                    </g>
                    <g transform="matrix(1,0,0,1,-38.6331,-953.543)">
                        <path d="M1690.6,1832.37C1682.56,1835.94 1673.11,1838 1663,1838C1633.75,1838 1610,1820.76 1610,1799.51C1610,1778.27 1633.75,1761.03 1663,1761.03C1692.25,1761.03 1716,1778.27 1716,1799.51C1716,1802.88 1715.4,1806.14 1714.29,1809.25C1722.33,1805.68 1731.78,1803.62 1741.89,1803.62C1771.14,1803.62 1794.89,1820.86 1794.89,1842.1C1794.89,1863.34 1771.14,1880.59 1741.89,1880.59C1712.64,1880.59 1688.89,1863.34 1688.89,1842.1C1688.89,1838.74 1689.48,1835.48 1690.6,1832.37Z" style="fill:white;fill-opacity:0.5;"/>
                    </g>
                    <g transform="matrix(0.711145,0,0,0.666399,753.18,-313.062)">
                        <path d="M1641.46,1834.68C1641.47,1834.97 1641.47,1835.25 1641.47,1835.53C1641.47,1856.77 1617.72,1874.01 1588.47,1874.01C1559.22,1874.01 1535.47,1856.77 1535.47,1835.53C1535.47,1814.29 1559.22,1797.04 1588.47,1797.04C1596.14,1797.04 1603.43,1798.23 1610.01,1800.36C1610,1800.08 1610,1799.8 1610,1799.51C1610,1778.27 1633.75,1761.03 1663,1761.03C1692.25,1761.03 1716,1778.27 1716,1799.51C1716,1820.76 1692.25,1838 1663,1838C1655.33,1838 1648.04,1836.82 1641.46,1834.68Z" style="fill:white;fill-opacity:0.5;"/>
                    </g>
                    <g transform="matrix(0.711145,0,0,0.666399,651.128,-480.139)">
                        <path d="M1713.04,1812.22C1705.81,1827.23 1686.12,1838 1663,1838C1633.75,1838 1610,1820.76 1610,1799.51C1610,1778.27 1633.75,1761.03 1663,1761.03C1684.37,1761.03 1702.8,1770.23 1711.18,1783.47C1718.42,1768.47 1738.1,1757.69 1761.22,1757.69C1790.48,1757.69 1814.22,1774.94 1814.22,1796.18C1814.22,1814.64 1796.29,1830.08 1772.39,1833.81C1780.4,1840.55 1785.25,1849.33 1785.25,1858.93C1785.25,1880.17 1761.5,1897.41 1732.25,1897.41C1703,1897.41 1679.25,1880.17 1679.25,1858.93C1679.25,1840.47 1697.19,1825.03 1721.08,1821.3C1717.85,1818.58 1715.13,1815.52 1713.04,1812.22Z" style="fill:white;fill-opacity:0.5;"/>
                    </g>
                </g>
                <g transform="matrix(1.21469,0,0,1.21469,396.619,1951.95)">
                    <text x="1038px" y="429.921px" style="font-family:'Arial-BoldMT', 'Arial', sans-serif;font-weight:700;font-size:44.593px;">T<tspan x="1061.93px 1086.73px " y="429.921px 429.921px ">es</tspan>t is ran only in Cells</text>
                    <g transform="matrix(44.593,0,0,44.593,1561.68,475.972)">
                    </g>
                    <text x="1009.12px" y="475.972px" style="font-family:'Arial-BoldMT', 'Arial', sans-serif;font-weight:700;font-size:44.593px;">that Match Subset Criteria</text>
                </g>
            </g>
        </g>
        <g id="Step-2" serif:id="Step 2" transform="matrix(1,0,0,1,7.95808e-13,72.7147)">
            <g transform="matrix(1.17289,0,0,0.351378,-236.268,892.908)">
                <path d="M2262,411.378L2262,2364.62C2262,2411.74 2250.54,2450 2236.42,2450L340.578,2450C326.461,2450 315,2411.74 315,2364.62L315,411.378C315,364.257 326.461,326 340.578,326L2236.42,326C2250.54,326 2262,364.257 2262,411.378Z" style="fill:white;stroke:black;stroke-width:4.81px;"/>
            </g>
            <g transform="matrix(0.507212,0,0,0.256206,1156.83,1068.48)">
                <path d="M2262,443.093L2262,2332.91C2262,2397.53 2235.5,2450 2202.85,2450L374.147,2450C341.503,2450 315,2397.53 315,2332.91L315,443.093C315,378.468 341.503,326 374.147,326L2202.85,326C2235.5,326 2262,378.468 2262,443.093Z" style="fill:white;stroke:black;stroke-width:10.37px;"/>
            </g>
            <g transform="matrix(0.507212,0,0,0.256206,55.1081,1068.48)">
                <path d="M2262,443.093L2262,2332.91C2262,2397.53 2235.5,2450 2202.85,2450L374.147,2450C341.503,2450 315,2397.53 315,2332.91L315,443.093C315,378.468 341.503,326 374.147,326L2202.85,326C2235.5,326 2262,378.468 2262,443.093Z" style="fill:white;stroke:black;stroke-width:10.37px;"/>
            </g>
            <g transform="matrix(1.21469,0,0,1.21469,285.939,700.141)">
                <g transform="matrix(44.593,0,0,44.593,1314.5,429.921)">
                </g>
                <g transform="matrix(44.593,0,0,44.593,1329.35,429.921)">
                </g>
                <g transform="matrix(44.593,0,0,44.593,1473.06,429.921)">
                </g>
                <text x="1036.94px" y="429.921px" style="font-family:'Arial-BoldMT', 'Arial', sans-serif;font-weight:700;font-size:44.593px;">Marker Identiﬁcation</text>
            </g>
            <g transform="matrix(1.21469,0,0,1.21469,-1079.96,555.593)">
                <g transform="matrix(75,0,0,75,1911.69,451.687)">
                </g>
                <g transform="matrix(75,0,0,75,1936.67,451.687)">
                </g>
                <g transform="matrix(75,0,0,75,2332.54,451.687)">
                </g>
                <text x="1544.93px" y="451.687px" style="font-family:'Arial-BoldMT', 'Arial', sans-serif;font-weight:700;font-size:75px;">Step 2: Deﬁne Groups</text>
            </g>
            <g transform="matrix(1.21469,0,0,1.21469,-796.956,700.141)">
                <g transform="matrix(44.593,0,0,44.593,1497.86,429.921)">
                </g>
                <text x="1012.14px" y="429.921px" style="font-family:'Arial-BoldMT', 'Arial', sans-serif;font-weight:700;font-size:44.593px;">Differential Expression</text>
            </g>
            <g transform="matrix(1.21469,0,0,1.21469,1082.15,-69.9718)">
                <g transform="matrix(1,0,0,1,-64,-9.5)">
                    <g transform="matrix(0.426531,0,0,0.421296,310.82,658.565)">
                        <rect x="542" y="1138" width="449" height="108" style="fill:white;"/>
                        <path d="M999.042,1138L999.042,1246C999.042,1250.5 995.442,1254.14 991,1254.14L542,1254.14C537.558,1254.14 533.958,1250.5 533.958,1246L533.958,1138C533.958,1133.5 537.558,1129.86 542,1129.86L991,1129.86C995.442,1129.86 999.042,1133.5 999.042,1138ZM991,1138L542,1138L542,1246L991,1246L991,1138Z"/>
                    </g>
                    <g transform="matrix(1,0,0,1,-443.488,748.25)">
                        <g transform="matrix(33.3333,0,0,33.3333,1132.38,421.861)">
                        </g>
                        <text x="999px" y="421.861px" style="font-family:'Arial-BoldMT', 'Arial', sans-serif;font-weight:700;font-size:33.333px;">Clusters</text>
                    </g>
                </g>
                <g transform="matrix(1,0,0,1,-40,28.25)">
                    <g transform="matrix(0.426531,0,0,0.421296,310.82,658.565)">
                        <rect x="542" y="1138" width="449" height="108" style="fill:white;"/>
                        <path d="M999.042,1138L999.042,1246C999.042,1250.5 995.442,1254.14 991,1254.14L542,1254.14C537.558,1254.14 533.958,1250.5 533.958,1246L533.958,1138C533.958,1133.5 537.558,1129.86 542,1129.86L991,1129.86C995.442,1129.86 999.042,1133.5 999.042,1138ZM991,1138L542,1138L542,1246L991,1246L991,1138Z"/>
                    </g>
                    <g transform="matrix(1,0,0,1,-443.488,748.25)">
                        <g transform="matrix(33.3333,0,0,33.3333,1160.17,421.861)">
                        </g>
                        <text x="999px" y="421.861px" style="font-family:'Arial-BoldMT', 'Arial', sans-serif;font-weight:700;font-size:33.333px;">Sample ID</text>
                    </g>
                </g>
                <g transform="matrix(1,0,0,1,-12.4875,66.75)">
                    <g transform="matrix(0.426531,0,0,0.421296,310.82,658.565)">
                        <rect x="542" y="1138" width="449" height="108" style="fill:white;"/>
                        <path d="M999.042,1138L999.042,1246C999.042,1250.5 995.442,1254.14 991,1254.14L542,1254.14C537.558,1254.14 533.958,1250.5 533.958,1246L533.958,1138C533.958,1133.5 537.558,1129.86 542,1129.86L991,1129.86C995.442,1129.86 999.042,1133.5 999.042,1138ZM991,1138L542,1138L542,1246L991,1246L991,1138Z"/>
                    </g>
                    <g transform="matrix(1,0,0,1,-443.488,748.25)">
                        <g transform="matrix(33.3333,0,0,33.3333,1158.31,421.861)">
                        </g>
                        <text x="999px" y="421.861px" style="font-family:'Arial-BoldMT', 'Arial', sans-serif;font-weight:700;font-size:33.333px;">T<tspan x="1017.52px 1030.49px " y="421.861px 421.861px ">re</tspan>atment</text>
                    </g>
                </g>
            </g>
            <g transform="matrix(1.21469,0,0,1.21469,-288.32,-69.9718)">
                <g transform="matrix(1,0,0,1,-64,-9.5)">
                    <g transform="matrix(0.426531,0,0,0.421296,310.82,658.565)">
                        <rect x="542" y="1138" width="449" height="108" style="fill:white;"/>
                        <path d="M999.042,1138L999.042,1246C999.042,1250.5 995.442,1254.14 991,1254.14L542,1254.14C537.558,1254.14 533.958,1250.5 533.958,1246L533.958,1138C533.958,1133.5 537.558,1129.86 542,1129.86L991,1129.86C995.442,1129.86 999.042,1133.5 999.042,1138ZM991,1138L542,1138L542,1246L991,1246L991,1138Z"/>
                    </g>
                    <g transform="matrix(1,0,0,1,-443.488,748.25)">
                        <g transform="matrix(33.3333,0,0,33.3333,1132.38,421.861)">
                        </g>
                        <text x="999px" y="421.861px" style="font-family:'Arial-BoldMT', 'Arial', sans-serif;font-weight:700;font-size:33.333px;">Clusters</text>
                    </g>
                </g>
                <g transform="matrix(1,0,0,1,-40,28.25)">
                    <g transform="matrix(0.426531,0,0,0.421296,310.82,658.565)">
                        <rect x="542" y="1138" width="449" height="108" style="fill:white;"/>
                        <path d="M999.042,1138L999.042,1246C999.042,1250.5 995.442,1254.14 991,1254.14L542,1254.14C537.558,1254.14 533.958,1250.5 533.958,1246L533.958,1138C533.958,1133.5 537.558,1129.86 542,1129.86L991,1129.86C995.442,1129.86 999.042,1133.5 999.042,1138ZM991,1138L542,1138L542,1246L991,1246L991,1138Z"/>
                    </g>
                    <g transform="matrix(1,0,0,1,-443.488,748.25)">
                        <g transform="matrix(33.3333,0,0,33.3333,1160.17,421.861)">
                        </g>
                        <text x="999px" y="421.861px" style="font-family:'Arial-BoldMT', 'Arial', sans-serif;font-weight:700;font-size:33.333px;">Sample ID</text>
                    </g>
                </g>
                <g transform="matrix(1,0,0,1,-12.4875,66.75)">
                    <g transform="matrix(0.426531,0,0,0.421296,310.82,658.565)">
                        <rect x="542" y="1138" width="449" height="108" style="fill:white;"/>
                        <path d="M999.042,1138L999.042,1246C999.042,1250.5 995.442,1254.14 991,1254.14L542,1254.14C537.558,1254.14 533.958,1250.5 533.958,1246L533.958,1138C533.958,1133.5 537.558,1129.86 542,1129.86L991,1129.86C995.442,1129.86 999.042,1133.5 999.042,1138ZM991,1138L542,1138L542,1246L991,1246L991,1138Z"/>
                    </g>
                    <g transform="matrix(1,0,0,1,-443.488,748.25)">
                        <g transform="matrix(33.3333,0,0,33.3333,1158.31,421.861)">
                        </g>
                        <text x="999px" y="421.861px" style="font-family:'Arial-BoldMT', 'Arial', sans-serif;font-weight:700;font-size:33.333px;">T<tspan x="1017.52px 1030.49px " y="421.861px 421.861px ">re</tspan>atment</text>
                    </g>
                </g>
            </g>
            <g transform="matrix(1.21469,0,0,1.21469,406.194,1005.94)">
                <g transform="matrix(44.593,0,0,44.593,1287.34,429.921)">
                </g>
                <text x="1024.66px" y="429.921px" style="font-family:'Arial-BoldMT', 'Arial', sans-serif;font-weight:700;font-size:44.593px;">By Metadata</text>
            </g>
            <g transform="matrix(1.21469,0,0,1.21469,-504.823,1005.94)">
                <text x="1040.76px" y="429.921px" style="font-family:'Arial-BoldMT', 'Arial', sans-serif;font-weight:700;font-size:44.593px;">By Feature</text>
                <text x="1035.8px" y="475.972px" style="font-family:'Arial-BoldMT', 'Arial', sans-serif;font-weight:700;font-size:44.593px;">Expression</text>
                <g transform="matrix(44.593,0,0,44.593,1263.77,522.024)">
                </g>
                <text x="1048.23px" y="522.024px" style="font-family:'Arial-BoldMT', 'Arial', sans-serif;font-weight:700;font-size:44.593px;">Threshold</text>
            </g>
            <g transform="matrix(1.21469,0,0,1.21469,-964.28,1005.94)">
                <g transform="matrix(44.593,0,0,44.593,1287.34,429.921)">
                </g>
                <text x="1024.66px" y="429.921px" style="font-family:'Arial-BoldMT', 'Arial', sans-serif;font-weight:700;font-size:44.593px;">By Metadata</text>
            </g>
            <g transform="matrix(1.02931,0,0,1.02931,-97.2676,100.603)">
                <g>
                    <g id="Cell16" serif:id="Cell" transform="matrix(0.213288,0,0,0.207029,870.905,1079.5)">
                        <g transform="matrix(1,0,0,1,-182,150)">
                            <path d="M850,536C932.042,530.361 986.935,583.665 999,639.5C1001.74,652.16 1000.46,672.461 993.882,683.939C985.929,697.818 970.685,702.493 951.408,713.139C925.615,727.383 890.809,737.995 850,743C768.376,753.011 704.489,696.517 701,639.5C697.551,583.135 730.34,544.225 850,536Z" style="fill:rgb(0,158,115);stroke:black;stroke-width:5.78px;"/>
                        </g>
                        <g transform="matrix(1,0,0,1,19,-24)">
                            <ellipse cx="681" cy="792" rx="61" ry="49" style="fill:rgb(1,45,37);"/>
                        </g>
                    </g>
                    <g id="Cell17" serif:id="Cell" transform="matrix(0.213288,0,0,0.207029,934.804,1101.09)">
                        <g transform="matrix(1,0,0,1,-182,150)">
                            <path d="M850,536C932.042,530.361 986.935,583.665 999,639.5C1001.74,652.16 1000.46,672.461 993.882,683.939C985.929,697.818 970.685,702.493 951.408,713.139C925.615,727.383 890.809,737.995 850,743C768.376,753.011 704.489,696.517 701,639.5C697.551,583.135 730.34,544.225 850,536Z" style="fill:rgb(0,124,94);stroke:black;stroke-width:5.78px;"/>
                        </g>
                        <g transform="matrix(1,0,0,1,19,-24)">
                            <ellipse cx="681" cy="792" rx="61" ry="49" style="fill:rgb(1,45,37);"/>
                        </g>
                    </g>
                    <g id="Cell18" serif:id="Cell" transform="matrix(0.213288,0,0,0.207029,1017.83,1047.2)">
                        <g transform="matrix(1,0,0,1,-182,150)">
                            <path d="M850,536C932.042,530.361 986.935,583.665 999,639.5C1001.74,652.16 1000.46,672.461 993.882,683.939C985.929,697.818 970.685,702.493 951.408,713.139C925.615,727.383 890.809,737.995 850,743C768.376,753.011 704.489,696.517 701,639.5C697.551,583.135 730.34,544.225 850,536Z" style="fill:rgb(3,98,75);stroke:black;stroke-width:5.78px;"/>
                        </g>
                        <g transform="matrix(1,0,0,1,19,-24)">
                            <ellipse cx="681" cy="792" rx="61" ry="49" style="fill:rgb(1,45,37);"/>
                        </g>
                    </g>
                    <g id="Cell19" serif:id="Cell" transform="matrix(0.213288,0,0,0.207029,945.287,1050.83)">
                        <g transform="matrix(1,0,0,1,-182,150)">
                            <path d="M850,536C932.042,530.361 986.935,583.665 999,639.5C1001.74,652.16 1000.46,672.461 993.882,683.939C985.929,697.818 970.685,702.493 951.408,713.139C925.615,727.383 890.809,737.995 850,743C768.376,753.011 704.489,696.517 701,639.5C697.551,583.135 730.34,544.225 850,536Z" style="fill:rgb(0,124,94);stroke:black;stroke-width:5.78px;"/>
                        </g>
                        <g transform="matrix(1,0,0,1,19,-24)">
                            <ellipse cx="681" cy="792" rx="61" ry="49" style="fill:rgb(1,45,37);"/>
                        </g>
                    </g>
                    <g id="Cell20" serif:id="Cell" transform="matrix(0.213288,0,0,0.207029,1017.88,1101.09)">
                        <g transform="matrix(1,0,0,1,-182,150)">
                            <path d="M850,536C932.042,530.361 986.935,583.665 999,639.5C1001.74,652.16 1000.46,672.461 993.882,683.939C985.929,697.818 970.685,702.493 951.408,713.139C925.615,727.383 890.809,737.995 850,743C768.376,753.011 704.489,696.517 701,639.5C697.551,583.135 730.34,544.225 850,536Z" style="fill:rgb(4,80,63);stroke:black;stroke-width:5.78px;"/>
                        </g>
                        <g transform="matrix(1,0,0,1,19,-24)">
                            <ellipse cx="681" cy="792" rx="61" ry="49" style="fill:rgb(1,45,37);"/>
                        </g>
                    </g>
                    <g transform="matrix(1.1801,0,0,0.703519,-200.348,393.96)">
                        <path d="M994,1280L994,1124" style="fill:none;stroke:rgb(45,45,45);stroke-width:3.13px;"/>
                    </g>
                    <g id="Cell21" serif:id="Cell" transform="matrix(0.213288,0,0,0.207029,701.335,1057.91)">
                        <g transform="matrix(1,0,0,1,-182,150)">
                            <path d="M850,536C932.042,530.361 986.935,583.665 999,639.5C1001.74,652.16 1000.46,672.461 993.882,683.939C985.929,697.818 970.685,702.493 951.408,713.139C925.615,727.383 890.809,737.995 850,743C768.376,753.011 704.489,696.517 701,639.5C697.551,583.135 730.34,544.225 850,536Z" style="fill:rgb(208,251,231);stroke:black;stroke-width:5.78px;"/>
                        </g>
                        <g transform="matrix(1,0,0,1,19,-24)">
                            <ellipse cx="681" cy="792" rx="61" ry="49" style="fill:rgb(1,45,37);"/>
                        </g>
                    </g>
                    <g id="Cell22" serif:id="Cell" transform="matrix(0.213288,0,0,0.207029,788.837,1067.35)">
                        <g transform="matrix(1,0,0,1,-182,150)">
                            <path d="M850,536C932.042,530.361 986.935,583.665 999,639.5C1001.74,652.16 1000.46,672.461 993.882,683.939C985.929,697.818 970.685,702.493 951.408,713.139C925.615,727.383 890.809,737.995 850,743C768.376,753.011 704.489,696.517 701,639.5C697.551,583.135 730.34,544.225 850,536Z" style="fill:rgb(106,235,189);stroke:black;stroke-width:5.78px;"/>
                        </g>
                        <g transform="matrix(1,0,0,1,19,-24)">
                            <ellipse cx="681" cy="792" rx="61" ry="49" style="fill:rgb(1,45,37);"/>
                        </g>
                    </g>
                    <g id="Cell23" serif:id="Cell" transform="matrix(0.213288,0,0,0.207029,662.756,1107.99)">
                        <g transform="matrix(1,0,0,1,-182,150)">
                            <path d="M850,536C932.042,530.361 986.935,583.665 999,639.5C1001.74,652.16 1000.46,672.461 993.882,683.939C985.929,697.818 970.685,702.493 951.408,713.139C925.615,727.383 890.809,737.995 850,743C768.376,753.011 704.489,696.517 701,639.5C697.551,583.135 730.34,544.225 850,536Z" style="fill:rgb(235,254,246);stroke:black;stroke-width:5.78px;"/>
                        </g>
                        <g transform="matrix(1,0,0,1,19,-24)">
                            <ellipse cx="681" cy="792" rx="61" ry="49" style="fill:rgb(1,45,37);"/>
                        </g>
                    </g>
                    <g id="Cell24" serif:id="Cell" transform="matrix(0.213288,0,0,0.207029,738.006,1101.09)">
                        <g transform="matrix(1,0,0,1,-182,150)">
                            <path d="M850,536C932.042,530.361 986.935,583.665 999,639.5C1001.74,652.16 1000.46,672.461 993.882,683.939C985.929,697.818 970.685,702.493 951.408,713.139C925.615,727.383 890.809,737.995 850,743C768.376,753.011 704.489,696.517 701,639.5C697.551,583.135 730.34,544.225 850,536Z" style="fill:rgb(164,246,211);stroke:black;stroke-width:5.78px;"/>
                        </g>
                        <g transform="matrix(1,0,0,1,19,-24)">
                            <ellipse cx="681" cy="792" rx="61" ry="49" style="fill:rgb(1,45,37);"/>
                        </g>
                    </g>
                    <g id="Cell25" serif:id="Cell" transform="matrix(0.213288,0,0,0.207029,630.806,1064.81)">
                        <g transform="matrix(1,0,0,1,-182,150)">
                            <path d="M850,536C932.042,530.361 986.935,583.665 999,639.5C1001.74,652.16 1000.46,672.461 993.882,683.939C985.929,697.818 970.685,702.493 951.408,713.139C925.615,727.383 890.809,737.995 850,743C768.376,753.011 704.489,696.517 701,639.5C697.551,583.135 730.34,544.225 850,536Z" style="fill:rgb(235,254,246);stroke:black;stroke-width:5.78px;"/>
                        </g>
                        <g transform="matrix(1,0,0,1,19,-24)">
                            <ellipse cx="681" cy="792" rx="61" ry="49" style="fill:rgb(1,45,37);"/>
                        </g>
                    </g>
                </g>
            </g>
        </g>
        <g id="Step-1" serif:id="Step 1" transform="matrix(1.21469,0,0,1.21469,-290.127,-26)">
            <g transform="matrix(0.965588,0,0,0.352713,44.3398,13.0155)">
                <path d="M2262,396.022L2262,2379.98C2262,2418.62 2250.54,2450 2236.42,2450L340.578,2450C326.461,2450 315,2418.62 315,2379.98L315,396.022C315,357.376 326.461,326 340.578,326L2236.42,326C2250.54,326 2262,357.376 2262,396.022Z" style="fill:white;stroke:black;stroke-width:4.72px;"/>
            </g>
            <g id="Guide" transform="matrix(0.166487,0,0,1,2016.23,-234)">
                <rect x="348.5" y="362" width="926.5" height="708" style="fill:none;"/>
            </g>
            <g transform="matrix(1,0,0,1,-650.484,-241)">
                <g transform="matrix(75,0,0,75,2486.96,451.687)">
                </g>
                <text x="1391px" y="451.687px" style="font-family:'Arial-BoldMT', 'Arial', sans-serif;font-weight:700;font-size:75px;">Step 1: Choose test to perform</text>
            </g>
            <g id="Differential-Expression-Test" serif:id="Differential Expression Test" transform="matrix(1,0,0,1,97.8374,-233.852)">
                <g transform="matrix(1,0,0,1,-470.812,86)">
                    <g transform="matrix(44.593,0,0,44.593,1497.86,429.921)">
                    </g>
                    <text x="1012.14px" y="429.921px" style="font-family:'Arial-BoldMT', 'Arial', sans-serif;font-weight:700;font-size:44.593px;">Differential Expression</text>
                </g>
                <g transform="matrix(1,0,0,1,-1034.46,-107)">
                    <g id="Greyed-out-cells" serif:id="Greyed out cells" transform="matrix(1,0,0,1,1273.38,-151.6)">
                        <g id="Cell26" serif:id="Cell" transform="matrix(0.202012,0,0,0.202012,401.652,733.342)">
                            <g transform="matrix(1,0,0,1,-182,150)">
                                <path d="M850,536C932.042,530.361 986.935,583.665 999,639.5C1001.74,652.16 1000.46,672.461 993.882,683.939C985.929,697.818 970.685,702.493 951.408,713.139C925.615,727.383 890.809,737.995 850,743C768.376,753.011 704.489,696.517 701,639.5C697.551,583.135 730.34,544.225 850,536Z" style="fill:rgb(133,153,251);stroke:black;stroke-width:5.09px;"/>
                            </g>
                            <g transform="matrix(1,0,0,1,19,-24)">
                                <ellipse cx="681" cy="792" rx="61" ry="49" style="fill:rgb(76,93,178);"/>
                            </g>
                        </g>
                        <g id="Cell27" serif:id="Cell" transform="matrix(0.202012,0,0,0.202012,474.578,727.685)">
                            <g transform="matrix(1,0,0,1,-182,150)">
                                <path d="M850,536C932.042,530.361 986.935,583.665 999,639.5C1001.74,652.16 1000.46,672.461 993.882,683.939C985.929,697.818 970.685,702.493 951.408,713.139C925.615,727.383 890.809,737.995 850,743C768.376,753.011 704.489,696.517 701,639.5C697.551,583.135 730.34,544.225 850,536Z" style="fill:rgb(133,153,251);stroke:black;stroke-width:5.09px;"/>
                            </g>
                            <g transform="matrix(1,0,0,1,19,-24)">
                                <ellipse cx="681" cy="792" rx="61" ry="49" style="fill:rgb(76,93,178);"/>
                            </g>
                        </g>
                        <g id="Cell28" serif:id="Cell" transform="matrix(0.202012,0,0,0.202012,495.183,685.869)">
                            <g transform="matrix(1,0,0,1,-182,150)">
                                <path d="M850,536C932.042,530.361 986.935,583.665 999,639.5C1001.74,652.16 1000.46,672.461 993.882,683.939C985.929,697.818 970.685,702.493 951.408,713.139C925.615,727.383 890.809,737.995 850,743C768.376,753.011 704.489,696.517 701,639.5C697.551,583.135 730.34,544.225 850,536Z" style="fill:rgb(133,153,251);stroke:black;stroke-width:5.09px;"/>
                            </g>
                            <g transform="matrix(1,0,0,1,19,-24)">
                                <ellipse cx="681" cy="792" rx="61" ry="49" style="fill:rgb(76,93,178);"/>
                            </g>
                        </g>
                        <g id="Cell29" serif:id="Cell" transform="matrix(0.202012,0,0,0.202012,346.705,707.08)">
                            <g transform="matrix(1,0,0,1,-182,150)">
                                <path d="M850,536C932.042,530.361 986.935,583.665 999,639.5C1001.74,652.16 1000.46,672.461 993.882,683.939C985.929,697.818 970.685,702.493 951.408,713.139C925.615,727.383 890.809,737.995 850,743C768.376,753.011 704.489,696.517 701,639.5C697.551,583.135 730.34,544.225 850,536Z" style="fill:rgb(133,153,251);stroke:black;stroke-width:5.09px;"/>
                            </g>
                            <g transform="matrix(1,0,0,1,19,-24)">
                                <ellipse cx="681" cy="792" rx="61" ry="49" style="fill:rgb(76,93,178);"/>
                            </g>
                        </g>
                        <g id="Cell30" serif:id="Cell" transform="matrix(0.202012,0,0,0.202012,432.762,688.091)">
                            <g transform="matrix(1,0,0,1,-182,150)">
                                <path d="M850,536C932.042,530.361 986.935,583.665 999,639.5C1001.74,652.16 1000.46,672.461 993.882,683.939C985.929,697.818 970.685,702.493 951.408,713.139C925.615,727.383 890.809,737.995 850,743C768.376,753.011 704.489,696.517 701,639.5C697.551,583.135 730.34,544.225 850,536Z" style="fill:rgb(133,153,251);stroke:black;stroke-width:5.09px;"/>
                            </g>
                            <g transform="matrix(1,0,0,1,19,-24)">
                                <ellipse cx="681" cy="792" rx="61" ry="49" style="fill:rgb(76,93,178);"/>
                            </g>
                        </g>
                        <g id="Cell31" serif:id="Cell" transform="matrix(0.160066,0,0,0.160066,396.948,694.488)">
                            <g transform="matrix(1,0,0,1,-182,150)">
                                <path d="M850,536C932.042,530.361 986.935,583.665 999,639.5C1001.74,652.16 1000.46,672.461 993.882,683.939C985.929,697.818 970.685,702.493 951.408,713.139C925.615,727.383 890.809,737.995 850,743C768.376,753.011 704.489,696.517 701,639.5C697.551,583.135 730.34,544.225 850,536Z" style="fill:rgb(133,153,251);stroke:black;stroke-width:6.43px;"/>
                            </g>
                            <g transform="matrix(1,0,0,1,19,-24)">
                                <ellipse cx="681" cy="792" rx="61" ry="49" style="fill:rgb(76,93,178);"/>
                            </g>
                        </g>
                        <g id="Opacity-Screen" serif:id="Opacity Screen" transform="matrix(0.80695,0,0,0.964603,-19.7587,191.485)">
                            <rect x="584" y="635.227" width="259" height="113.773" style="fill:white;fill-opacity:0.53;"/>
                        </g>
                    </g>
                    <g transform="matrix(0.398542,0,0,0.398542,1585.66,630.264)">
                        <g id="Cell32" serif:id="Cell" transform="matrix(0.535171,0,0,0.519467,688.422,377.349)">
                            <g transform="matrix(1,0,0,1,-182,150)">
                                <path d="M850,536C932.042,530.361 986.935,583.665 999,639.5C1001.74,652.16 1000.46,672.461 993.882,683.939C985.929,697.818 970.685,702.493 951.408,713.139C925.615,727.383 890.809,737.995 850,743C768.376,753.011 704.489,696.517 701,639.5C697.551,583.135 730.34,544.225 850,536Z" style="fill:rgb(185,219,255);stroke:black;stroke-width:4.9px;"/>
                            </g>
                            <g transform="matrix(1,0,0,1,19,-24)">
                                <ellipse cx="681" cy="792" rx="61" ry="49" style="fill:rgb(81,116,153);"/>
                            </g>
                        </g>
                        <g id="Cell33" serif:id="Cell" transform="matrix(0.535171,0,0,0.519467,551.737,441.514)">
                            <g transform="matrix(1,0,0,1,-182,150)">
                                <path d="M850,536C932.042,530.361 986.935,583.665 999,639.5C1001.74,652.16 1000.46,672.461 993.882,683.939C985.929,697.818 970.685,702.493 951.408,713.139C925.615,727.383 890.809,737.995 850,743C768.376,753.011 704.489,696.517 701,639.5C697.551,583.135 730.34,544.225 850,536Z" style="fill:rgb(185,219,255);stroke:black;stroke-width:4.9px;"/>
                            </g>
                            <g transform="matrix(1,0,0,1,19,-24)">
                                <ellipse cx="681" cy="792" rx="61" ry="49" style="fill:rgb(81,116,153);"/>
                            </g>
                        </g>
                        <g id="Cell34" serif:id="Cell" transform="matrix(0.535171,0,0,0.519467,837.042,303.453)">
                            <g transform="matrix(1,0,0,1,-182,150)">
                                <path d="M850,536C932.042,530.361 986.935,583.665 999,639.5C1001.74,652.16 1000.46,672.461 993.882,683.939C985.929,697.818 970.685,702.493 951.408,713.139C925.615,727.383 890.809,737.995 850,743C768.376,753.011 704.489,696.517 701,639.5C697.551,583.135 730.34,544.225 850,536Z" style="fill:rgb(185,219,255);stroke:black;stroke-width:4.9px;"/>
                            </g>
                            <g transform="matrix(1,0,0,1,19,-24)">
                                <ellipse cx="681" cy="792" rx="61" ry="49" style="fill:rgb(81,116,153);"/>
                            </g>
                        </g>
                        <g id="Cell35" serif:id="Cell" transform="matrix(0.535171,0,0,0.519467,696.481,236.859)">
                            <g transform="matrix(1,0,0,1,-182,150)">
                                <path d="M850,536C932.042,530.361 986.935,583.665 999,639.5C1001.74,652.16 1000.46,672.461 993.882,683.939C985.929,697.818 970.685,702.493 951.408,713.139C925.615,727.383 890.809,737.995 850,743C768.376,753.011 704.489,696.517 701,639.5C697.551,583.135 730.34,544.225 850,536Z" style="fill:rgb(185,219,255);stroke:black;stroke-width:4.9px;"/>
                            </g>
                            <g transform="matrix(1,0,0,1,19,-24)">
                                <ellipse cx="681" cy="792" rx="61" ry="49" style="fill:rgb(81,116,153);"/>
                            </g>
                        </g>
                        <g id="Cell36" serif:id="Cell" transform="matrix(0.535171,0,0,0.519467,517.375,323.176)">
                            <g transform="matrix(1,0,0,1,-182,150)">
                                <path d="M850,536C932.042,530.361 986.935,583.665 999,639.5C1001.74,652.16 1000.46,672.461 993.882,683.939C985.929,697.818 970.685,702.493 951.408,713.139C925.615,727.383 890.809,737.995 850,743C768.376,753.011 704.489,696.517 701,639.5C697.551,583.135 730.34,544.225 850,536Z" style="fill:rgb(185,219,255);stroke:black;stroke-width:4.9px;"/>
                            </g>
                            <g transform="matrix(1,0,0,1,19,-24)">
                                <ellipse cx="681" cy="792" rx="61" ry="49" style="fill:rgb(81,116,153);"/>
                            </g>
                        </g>
                    </g>
                    <g transform="matrix(0.367537,0,0,0.367537,1025.27,638.726)">
                        <g id="Cell37" serif:id="Cell" transform="matrix(0.513756,0,0,0.513756,1210.48,340.775)">
                            <g transform="matrix(1,0,0,1,-182,150)">
                                <path d="M850,536C932.042,530.361 986.935,583.665 999,639.5C1001.74,652.16 1000.46,672.461 993.882,683.939C985.929,697.818 970.685,702.493 951.408,713.139C925.615,727.383 890.809,737.995 850,743C768.376,753.011 704.489,696.517 701,639.5C697.551,583.135 730.34,544.225 850,536Z" style="fill:rgb(255,190,190);stroke:black;stroke-width:5.45px;"/>
                            </g>
                            <g transform="matrix(1.54569,0,0,1.40416,-385.902,-324.289)">
                                <ellipse cx="681" cy="792" rx="61" ry="49" style="fill:rgb(162,78,78);"/>
                            </g>
                        </g>
                        <g id="Cell38" serif:id="Cell" transform="matrix(0.558103,0,0,0.558103,1370.48,237.371)">
                            <g transform="matrix(1,0,0,1,-182,150)">
                                <path d="M850,536C932.042,530.361 986.935,583.665 999,639.5C1001.74,652.16 1000.46,672.461 993.882,683.939C985.929,697.818 970.685,702.493 951.408,713.139C925.615,727.383 890.809,737.995 850,743C768.376,753.011 704.489,696.517 701,639.5C697.551,583.135 730.34,544.225 850,536Z" style="fill:rgb(255,190,190);stroke:black;stroke-width:5.02px;"/>
                            </g>
                            <g transform="matrix(1.55522,0,0,1.64019,-392.971,-499.661)">
                                <ellipse cx="681" cy="792" rx="61" ry="49" style="fill:rgb(162,78,78);"/>
                            </g>
                        </g>
                        <g id="Cell39" serif:id="Cell" transform="matrix(0.558103,0,0,0.558103,1120.48,460.371)">
                            <g transform="matrix(1,0,0,1,-182,150)">
                                <path d="M850,536C932.042,530.361 986.935,583.665 999,639.5C1001.74,652.16 1000.46,672.461 993.882,683.939C985.929,697.818 970.685,702.493 951.408,713.139C925.615,727.383 890.809,737.995 850,743C768.376,753.011 704.489,696.517 701,639.5C697.551,583.135 730.34,544.225 850,536Z" style="fill:rgb(255,190,190);stroke:black;stroke-width:5.02px;"/>
                            </g>
                            <g transform="matrix(1.55522,0,0,1.64019,-392.971,-499.661)">
                                <ellipse cx="681" cy="792" rx="61" ry="49" style="fill:rgb(162,78,78);"/>
                            </g>
                        </g>
                        <g id="Cell40" serif:id="Cell" transform="matrix(0.558103,0,0,0.558103,1531.48,296.371)">
                            <g transform="matrix(1,0,0,1,-182,150)">
                                <path d="M850,536C932.042,530.361 986.935,583.665 999,639.5C1001.74,652.16 1000.46,672.461 993.882,683.939C985.929,697.818 970.685,702.493 951.408,713.139C925.615,727.383 890.809,737.995 850,743C768.376,753.011 704.489,696.517 701,639.5C697.551,583.135 730.34,544.225 850,536Z" style="fill:rgb(255,190,190);stroke:black;stroke-width:5.02px;"/>
                            </g>
                            <g transform="matrix(1.55522,0,0,1.64019,-392.971,-499.661)">
                                <ellipse cx="681" cy="792" rx="61" ry="49" style="fill:rgb(162,78,78);"/>
                            </g>
                        </g>
                        <g id="Cell41" serif:id="Cell" transform="matrix(0.705649,0,0,0.705649,1243.94,264.215)">
                            <g transform="matrix(1,0,0,1,-182,150)">
                                <path d="M850,536C932.042,530.361 986.935,583.665 999,639.5C1001.74,652.16 1000.46,672.461 993.882,683.939C985.929,697.818 970.685,702.493 951.408,713.139C925.615,727.383 890.809,737.995 850,743C768.376,753.011 704.489,696.517 701,639.5C697.551,583.135 730.34,544.225 850,536Z" style="fill:rgb(255,190,190);stroke:black;stroke-width:3.97px;"/>
                            </g>
                            <g transform="matrix(1.66249,0,0,1.53647,-472.565,-422.6)">
                                <ellipse cx="681" cy="792" rx="61" ry="49" style="fill:rgb(162,78,78);"/>
                            </g>
                        </g>
                    </g>
                    <g transform="matrix(0.173108,0,2.73297e-17,0.151417,1485.39,764.524)">
                        <path d="M1824.48,1129.42L1824.48,1198L1732.2,1092.5L1824.48,987L1824.48,1055.58L2149.72,1055.58L2149.72,987L2242,1092.5L2149.72,1198L2149.72,1129.42L1824.48,1129.42Z" style="fill:white;stroke:black;stroke-width:10.55px;"/>
                    </g>
                    <g transform="matrix(1,0,0,1,806.875,492.985)">
                        <g transform="matrix(33.3333,0,0,33.3333,1045.34,421.861)">
                        </g>
                        <text x="999px" y="421.861px" style="font-family:'Arial-BoldMT', 'Arial', sans-serif;font-weight:700;font-size:33.333px;">vs.</text>
                    </g>
                </g>
                <g transform="matrix(1,0,0,1,-594.087,546.715)">
                    <text x="1067.12px" y="429.921px" style="font-family:'Arial-BoldMT', 'Arial', sans-serif;font-weight:700;font-size:44.593px;">Identify Genes Differentially</text>
                    <g transform="matrix(44.593,0,0,44.593,1702.73,475.972)">
                    </g>
                    <text x="1021.27px" y="475.972px" style="font-family:'Arial-BoldMT', 'Arial', sans-serif;font-weight:700;font-size:44.593px;">Expressed Between two Groups</text>
                </g>
            </g>
            <g id="Marker-ID-Test" serif:id="Marker ID Test" transform="matrix(1,0,0,1,-99.6626,-233.852)">
                <g transform="matrix(1,0,0,1,576.65,86)">
                    <g transform="matrix(44.593,0,0,44.593,1285.5,429.921)">
                    </g>
                    <g transform="matrix(44.593,0,0,44.593,1300.35,429.921)">
                    </g>
                    <g transform="matrix(44.593,0,0,44.593,1444.06,429.921)">
                    </g>
                    <text x="1007.95px" y="429.921px" style="font-family:'Arial-BoldMT', 'Arial', sans-serif;font-weight:700;font-size:44.593px;">Marker Identiﬁcation</text>
                </g>
                <g transform="matrix(1,0,0,1,65.5324,-103.707)">
                    <g transform="matrix(0.646394,0,0,0.646394,1406.49,149.964)">
                        <g id="Cell42" serif:id="Cell" transform="matrix(0.202012,0,0,0.202012,401.652,733.342)">
                            <g transform="matrix(1,0,0,1,-182,150)">
                                <path d="M850,536C932.042,530.361 986.935,583.665 999,639.5C1001.74,652.16 1000.46,672.461 993.882,683.939C985.929,697.818 970.685,702.493 951.408,713.139C925.615,727.383 890.809,737.995 850,743C768.376,753.011 704.489,696.517 701,639.5C697.551,583.135 730.34,544.225 850,536Z" style="fill:rgb(133,153,251);stroke:black;stroke-width:7.88px;"/>
                            </g>
                            <g transform="matrix(1,0,0,1,19,-24)">
                                <ellipse cx="681" cy="792" rx="61" ry="49" style="fill:rgb(76,93,178);"/>
                            </g>
                        </g>
                        <g id="Cell43" serif:id="Cell" transform="matrix(0.202012,0,0,0.202012,474.578,727.685)">
                            <g transform="matrix(1,0,0,1,-182,150)">
                                <path d="M850,536C932.042,530.361 986.935,583.665 999,639.5C1001.74,652.16 1000.46,672.461 993.882,683.939C985.929,697.818 970.685,702.493 951.408,713.139C925.615,727.383 890.809,737.995 850,743C768.376,753.011 704.489,696.517 701,639.5C697.551,583.135 730.34,544.225 850,536Z" style="fill:rgb(133,153,251);stroke:black;stroke-width:7.88px;"/>
                            </g>
                            <g transform="matrix(1,0,0,1,19,-24)">
                                <ellipse cx="681" cy="792" rx="61" ry="49" style="fill:rgb(76,93,178);"/>
                            </g>
                        </g>
                        <g id="Cell44" serif:id="Cell" transform="matrix(0.202012,0,0,0.202012,495.183,685.869)">
                            <g transform="matrix(1,0,0,1,-182,150)">
                                <path d="M850,536C932.042,530.361 986.935,583.665 999,639.5C1001.74,652.16 1000.46,672.461 993.882,683.939C985.929,697.818 970.685,702.493 951.408,713.139C925.615,727.383 890.809,737.995 850,743C768.376,753.011 704.489,696.517 701,639.5C697.551,583.135 730.34,544.225 850,536Z" style="fill:rgb(133,153,251);stroke:black;stroke-width:7.88px;"/>
                            </g>
                            <g transform="matrix(1,0,0,1,19,-24)">
                                <ellipse cx="681" cy="792" rx="61" ry="49" style="fill:rgb(76,93,178);"/>
                            </g>
                        </g>
                        <g id="Cell45" serif:id="Cell" transform="matrix(0.202012,0,0,0.202012,346.705,707.08)">
                            <g transform="matrix(1,0,0,1,-182,150)">
                                <path d="M850,536C932.042,530.361 986.935,583.665 999,639.5C1001.74,652.16 1000.46,672.461 993.882,683.939C985.929,697.818 970.685,702.493 951.408,713.139C925.615,727.383 890.809,737.995 850,743C768.376,753.011 704.489,696.517 701,639.5C697.551,583.135 730.34,544.225 850,536Z" style="fill:rgb(133,153,251);stroke:black;stroke-width:7.88px;"/>
                            </g>
                            <g transform="matrix(1,0,0,1,19,-24)">
                                <ellipse cx="681" cy="792" rx="61" ry="49" style="fill:rgb(76,93,178);"/>
                            </g>
                        </g>
                        <g id="Cell46" serif:id="Cell" transform="matrix(0.202012,0,0,0.202012,432.762,688.091)">
                            <g transform="matrix(1,0,0,1,-182,150)">
                                <path d="M850,536C932.042,530.361 986.935,583.665 999,639.5C1001.74,652.16 1000.46,672.461 993.882,683.939C985.929,697.818 970.685,702.493 951.408,713.139C925.615,727.383 890.809,737.995 850,743C768.376,753.011 704.489,696.517 701,639.5C697.551,583.135 730.34,544.225 850,536Z" style="fill:rgb(133,153,251);stroke:black;stroke-width:7.88px;"/>
                            </g>
                            <g transform="matrix(1,0,0,1,19,-24)">
                                <ellipse cx="681" cy="792" rx="61" ry="49" style="fill:rgb(76,93,178);"/>
                            </g>
                        </g>
                        <g id="Cell47" serif:id="Cell" transform="matrix(0.160066,0,0,0.160066,396.948,694.488)">
                            <g transform="matrix(1,0,0,1,-182,150)">
                                <path d="M850,536C932.042,530.361 986.935,583.665 999,639.5C1001.74,652.16 1000.46,672.461 993.882,683.939C985.929,697.818 970.685,702.493 951.408,713.139C925.615,727.383 890.809,737.995 850,743C768.376,753.011 704.489,696.517 701,639.5C697.551,583.135 730.34,544.225 850,536Z" style="fill:rgb(133,153,251);stroke:black;stroke-width:9.95px;"/>
                            </g>
                            <g transform="matrix(1,0,0,1,19,-24)">
                                <ellipse cx="681" cy="792" rx="61" ry="49" style="fill:rgb(76,93,178);"/>
                            </g>
                        </g>
                    </g>
                    <g transform="matrix(0.281451,0,0,0.281451,1687.8,494.333)">
                        <g id="Cell48" serif:id="Cell" transform="matrix(0.535171,0,0,0.519467,688.422,377.349)">
                            <g transform="matrix(1,0,0,1,-182,150)">
                                <path d="M850,536C932.042,530.361 986.935,583.665 999,639.5C1001.74,652.16 1000.46,672.461 993.882,683.939C985.929,697.818 970.685,702.493 951.408,713.139C925.615,727.383 890.809,737.995 850,743C768.376,753.011 704.489,696.517 701,639.5C697.551,583.135 730.34,544.225 850,536Z" style="fill:rgb(185,219,255);stroke:black;stroke-width:6.93px;"/>
                            </g>
                            <g transform="matrix(1,0,0,1,19,-24)">
                                <ellipse cx="681" cy="792" rx="61" ry="49" style="fill:rgb(81,116,153);"/>
                            </g>
                        </g>
                        <g id="Cell49" serif:id="Cell" transform="matrix(0.535171,0,0,0.519467,551.737,441.514)">
                            <g transform="matrix(1,0,0,1,-182,150)">
                                <path d="M850,536C932.042,530.361 986.935,583.665 999,639.5C1001.74,652.16 1000.46,672.461 993.882,683.939C985.929,697.818 970.685,702.493 951.408,713.139C925.615,727.383 890.809,737.995 850,743C768.376,753.011 704.489,696.517 701,639.5C697.551,583.135 730.34,544.225 850,536Z" style="fill:rgb(185,219,255);stroke:black;stroke-width:6.93px;"/>
                            </g>
                            <g transform="matrix(1,0,0,1,19,-24)">
                                <ellipse cx="681" cy="792" rx="61" ry="49" style="fill:rgb(81,116,153);"/>
                            </g>
                        </g>
                        <g id="Cell50" serif:id="Cell" transform="matrix(0.535171,0,0,0.519467,837.042,303.453)">
                            <g transform="matrix(1,0,0,1,-182,150)">
                                <path d="M850,536C932.042,530.361 986.935,583.665 999,639.5C1001.74,652.16 1000.46,672.461 993.882,683.939C985.929,697.818 970.685,702.493 951.408,713.139C925.615,727.383 890.809,737.995 850,743C768.376,753.011 704.489,696.517 701,639.5C697.551,583.135 730.34,544.225 850,536Z" style="fill:rgb(185,219,255);stroke:black;stroke-width:6.93px;"/>
                            </g>
                            <g transform="matrix(1,0,0,1,19,-24)">
                                <ellipse cx="681" cy="792" rx="61" ry="49" style="fill:rgb(81,116,153);"/>
                            </g>
                        </g>
                        <g id="Cell51" serif:id="Cell" transform="matrix(0.535171,0,0,0.519467,696.481,236.859)">
                            <g transform="matrix(1,0,0,1,-182,150)">
                                <path d="M850,536C932.042,530.361 986.935,583.665 999,639.5C1001.74,652.16 1000.46,672.461 993.882,683.939C985.929,697.818 970.685,702.493 951.408,713.139C925.615,727.383 890.809,737.995 850,743C768.376,753.011 704.489,696.517 701,639.5C697.551,583.135 730.34,544.225 850,536Z" style="fill:rgb(185,219,255);stroke:black;stroke-width:6.93px;"/>
                            </g>
                            <g transform="matrix(1,0,0,1,19,-24)">
                                <ellipse cx="681" cy="792" rx="61" ry="49" style="fill:rgb(81,116,153);"/>
                            </g>
                        </g>
                        <g id="Cell52" serif:id="Cell" transform="matrix(0.535171,0,0,0.519467,517.375,323.176)">
                            <g transform="matrix(1,0,0,1,-182,150)">
                                <path d="M850,536C932.042,530.361 986.935,583.665 999,639.5C1001.74,652.16 1000.46,672.461 993.882,683.939C985.929,697.818 970.685,702.493 951.408,713.139C925.615,727.383 890.809,737.995 850,743C768.376,753.011 704.489,696.517 701,639.5C697.551,583.135 730.34,544.225 850,536Z" style="fill:rgb(185,219,255);stroke:black;stroke-width:6.93px;"/>
                            </g>
                            <g transform="matrix(1,0,0,1,19,-24)">
                                <ellipse cx="681" cy="792" rx="61" ry="49" style="fill:rgb(81,116,153);"/>
                            </g>
                        </g>
                    </g>
                    <g transform="matrix(0.233648,0,0,0.233648,1122.82,520.768)">
                        <g id="Cell53" serif:id="Cell" transform="matrix(0.513756,0,0,0.513756,1210.48,340.775)">
                            <g transform="matrix(1,0,0,1,-182,150)">
                                <path d="M850,536C932.042,530.361 986.935,583.665 999,639.5C1001.74,652.16 1000.46,672.461 993.882,683.939C985.929,697.818 970.685,702.493 951.408,713.139C925.615,727.383 890.809,737.995 850,743C768.376,753.011 704.489,696.517 701,639.5C697.551,583.135 730.34,544.225 850,536Z" style="fill:rgb(255,190,190);stroke:black;stroke-width:8.57px;"/>
                            </g>
                            <g transform="matrix(1.54569,0,0,1.40416,-385.902,-324.289)">
                                <ellipse cx="681" cy="792" rx="61" ry="49" style="fill:rgb(162,78,78);"/>
                            </g>
                        </g>
                        <g id="Cell54" serif:id="Cell" transform="matrix(0.558103,0,0,0.558103,1370.48,237.371)">
                            <g transform="matrix(1,0,0,1,-182,150)">
                                <path d="M850,536C932.042,530.361 986.935,583.665 999,639.5C1001.74,652.16 1000.46,672.461 993.882,683.939C985.929,697.818 970.685,702.493 951.408,713.139C925.615,727.383 890.809,737.995 850,743C768.376,753.011 704.489,696.517 701,639.5C697.551,583.135 730.34,544.225 850,536Z" style="fill:rgb(255,190,190);stroke:black;stroke-width:7.89px;"/>
                            </g>
                            <g transform="matrix(1.55522,0,0,1.64019,-392.971,-499.661)">
                                <ellipse cx="681" cy="792" rx="61" ry="49" style="fill:rgb(162,78,78);"/>
                            </g>
                        </g>
                        <g id="Cell55" serif:id="Cell" transform="matrix(0.558103,0,0,0.558103,1120.48,460.371)">
                            <g transform="matrix(1,0,0,1,-182,150)">
                                <path d="M850,536C932.042,530.361 986.935,583.665 999,639.5C1001.74,652.16 1000.46,672.461 993.882,683.939C985.929,697.818 970.685,702.493 951.408,713.139C925.615,727.383 890.809,737.995 850,743C768.376,753.011 704.489,696.517 701,639.5C697.551,583.135 730.34,544.225 850,536Z" style="fill:rgb(255,190,190);stroke:black;stroke-width:7.89px;"/>
                            </g>
                            <g transform="matrix(1.55522,0,0,1.64019,-392.971,-499.661)">
                                <ellipse cx="681" cy="792" rx="61" ry="49" style="fill:rgb(162,78,78);"/>
                            </g>
                        </g>
                        <g id="Cell56" serif:id="Cell" transform="matrix(0.558103,0,0,0.558103,1531.48,296.371)">
                            <g transform="matrix(1,0,0,1,-182,150)">
                                <path d="M850,536C932.042,530.361 986.935,583.665 999,639.5C1001.74,652.16 1000.46,672.461 993.882,683.939C985.929,697.818 970.685,702.493 951.408,713.139C925.615,727.383 890.809,737.995 850,743C768.376,753.011 704.489,696.517 701,639.5C697.551,583.135 730.34,544.225 850,536Z" style="fill:rgb(255,190,190);stroke:black;stroke-width:7.89px;"/>
                            </g>
                            <g transform="matrix(1.55522,0,0,1.64019,-392.971,-499.661)">
                                <ellipse cx="681" cy="792" rx="61" ry="49" style="fill:rgb(162,78,78);"/>
                            </g>
                        </g>
                        <g id="Cell57" serif:id="Cell" transform="matrix(0.705649,0,0,0.705649,1243.94,264.215)">
                            <g transform="matrix(1,0,0,1,-182,150)">
                                <path d="M850,536C932.042,530.361 986.935,583.665 999,639.5C1001.74,652.16 1000.46,672.461 993.882,683.939C985.929,697.818 970.685,702.493 951.408,713.139C925.615,727.383 890.809,737.995 850,743C768.376,753.011 704.489,696.517 701,639.5C697.551,583.135 730.34,544.225 850,536Z" style="fill:rgb(255,190,190);stroke:black;stroke-width:6.24px;"/>
                            </g>
                            <g transform="matrix(1.66249,0,0,1.53647,-472.565,-422.6)">
                                <ellipse cx="681" cy="792" rx="61" ry="49" style="fill:rgb(162,78,78);"/>
                            </g>
                        </g>
                    </g>
                    <g transform="matrix(1,0,0,1,621.171,292.281)">
                        <g transform="matrix(33.3333,0,0,33.3333,1045.34,421.861)">
                        </g>
                        <text x="999px" y="421.861px" style="font-family:'Arial-BoldMT', 'Arial', sans-serif;font-weight:700;font-size:33.333px;">vs.</text>
                    </g>
                    <g transform="matrix(1,0,0,1,863.576,292.281)">
                        <g transform="matrix(33.3333,0,0,33.3333,1018.47,421.861)">
                        </g>
                        <text x="999px" y="421.861px" style="font-family:'Arial-BoldMT', 'Arial', sans-serif;font-weight:700;font-size:33.333px;">+</text>
                    </g>
                </g>
                <g transform="matrix(1,0,0,1,65.5324,14.8419)">
                    <g transform="matrix(0.646394,0,0,0.646394,1160.42,149.964)">
                        <g id="Cell58" serif:id="Cell" transform="matrix(0.202012,0,0,0.202012,401.652,733.342)">
                            <g transform="matrix(1,0,0,1,-182,150)">
                                <path d="M850,536C932.042,530.361 986.935,583.665 999,639.5C1001.74,652.16 1000.46,672.461 993.882,683.939C985.929,697.818 970.685,702.493 951.408,713.139C925.615,727.383 890.809,737.995 850,743C768.376,753.011 704.489,696.517 701,639.5C697.551,583.135 730.34,544.225 850,536Z" style="fill:rgb(133,153,251);stroke:black;stroke-width:7.88px;"/>
                            </g>
                            <g transform="matrix(1,0,0,1,19,-24)">
                                <ellipse cx="681" cy="792" rx="61" ry="49" style="fill:rgb(76,93,178);"/>
                            </g>
                        </g>
                        <g id="Cell59" serif:id="Cell" transform="matrix(0.202012,0,0,0.202012,474.578,727.685)">
                            <g transform="matrix(1,0,0,1,-182,150)">
                                <path d="M850,536C932.042,530.361 986.935,583.665 999,639.5C1001.74,652.16 1000.46,672.461 993.882,683.939C985.929,697.818 970.685,702.493 951.408,713.139C925.615,727.383 890.809,737.995 850,743C768.376,753.011 704.489,696.517 701,639.5C697.551,583.135 730.34,544.225 850,536Z" style="fill:rgb(133,153,251);stroke:black;stroke-width:7.88px;"/>
                            </g>
                            <g transform="matrix(1,0,0,1,19,-24)">
                                <ellipse cx="681" cy="792" rx="61" ry="49" style="fill:rgb(76,93,178);"/>
                            </g>
                        </g>
                        <g id="Cell60" serif:id="Cell" transform="matrix(0.202012,0,0,0.202012,495.183,685.869)">
                            <g transform="matrix(1,0,0,1,-182,150)">
                                <path d="M850,536C932.042,530.361 986.935,583.665 999,639.5C1001.74,652.16 1000.46,672.461 993.882,683.939C985.929,697.818 970.685,702.493 951.408,713.139C925.615,727.383 890.809,737.995 850,743C768.376,753.011 704.489,696.517 701,639.5C697.551,583.135 730.34,544.225 850,536Z" style="fill:rgb(133,153,251);stroke:black;stroke-width:7.88px;"/>
                            </g>
                            <g transform="matrix(1,0,0,1,19,-24)">
                                <ellipse cx="681" cy="792" rx="61" ry="49" style="fill:rgb(76,93,178);"/>
                            </g>
                        </g>
                        <g id="Cell61" serif:id="Cell" transform="matrix(0.202012,0,0,0.202012,346.705,707.08)">
                            <g transform="matrix(1,0,0,1,-182,150)">
                                <path d="M850,536C932.042,530.361 986.935,583.665 999,639.5C1001.74,652.16 1000.46,672.461 993.882,683.939C985.929,697.818 970.685,702.493 951.408,713.139C925.615,727.383 890.809,737.995 850,743C768.376,753.011 704.489,696.517 701,639.5C697.551,583.135 730.34,544.225 850,536Z" style="fill:rgb(133,153,251);stroke:black;stroke-width:7.88px;"/>
                            </g>
                            <g transform="matrix(1,0,0,1,19,-24)">
                                <ellipse cx="681" cy="792" rx="61" ry="49" style="fill:rgb(76,93,178);"/>
                            </g>
                        </g>
                        <g id="Cell62" serif:id="Cell" transform="matrix(0.202012,0,0,0.202012,432.762,688.091)">
                            <g transform="matrix(1,0,0,1,-182,150)">
                                <path d="M850,536C932.042,530.361 986.935,583.665 999,639.5C1001.74,652.16 1000.46,672.461 993.882,683.939C985.929,697.818 970.685,702.493 951.408,713.139C925.615,727.383 890.809,737.995 850,743C768.376,753.011 704.489,696.517 701,639.5C697.551,583.135 730.34,544.225 850,536Z" style="fill:rgb(133,153,251);stroke:black;stroke-width:7.88px;"/>
                            </g>
                            <g transform="matrix(1,0,0,1,19,-24)">
                                <ellipse cx="681" cy="792" rx="61" ry="49" style="fill:rgb(76,93,178);"/>
                            </g>
                        </g>
                        <g id="Cell63" serif:id="Cell" transform="matrix(0.160066,0,0,0.160066,396.948,694.488)">
                            <g transform="matrix(1,0,0,1,-182,150)">
                                <path d="M850,536C932.042,530.361 986.935,583.665 999,639.5C1001.74,652.16 1000.46,672.461 993.882,683.939C985.929,697.818 970.685,702.493 951.408,713.139C925.615,727.383 890.809,737.995 850,743C768.376,753.011 704.489,696.517 701,639.5C697.551,583.135 730.34,544.225 850,536Z" style="fill:rgb(133,153,251);stroke:black;stroke-width:9.95px;"/>
                            </g>
                            <g transform="matrix(1,0,0,1,19,-24)">
                                <ellipse cx="681" cy="792" rx="61" ry="49" style="fill:rgb(76,93,178);"/>
                            </g>
                        </g>
                    </g>
                    <g transform="matrix(0.281451,0,0,0.281451,1687.8,494.333)">
                        <g id="Cell64" serif:id="Cell" transform="matrix(0.535171,0,0,0.519467,688.422,377.349)">
                            <g transform="matrix(1,0,0,1,-182,150)">
                                <path d="M850,536C932.042,530.361 986.935,583.665 999,639.5C1001.74,652.16 1000.46,672.461 993.882,683.939C985.929,697.818 970.685,702.493 951.408,713.139C925.615,727.383 890.809,737.995 850,743C768.376,753.011 704.489,696.517 701,639.5C697.551,583.135 730.34,544.225 850,536Z" style="fill:rgb(185,219,255);stroke:black;stroke-width:6.93px;"/>
                            </g>
                            <g transform="matrix(1,0,0,1,19,-24)">
                                <ellipse cx="681" cy="792" rx="61" ry="49" style="fill:rgb(81,116,153);"/>
                            </g>
                        </g>
                        <g id="Cell65" serif:id="Cell" transform="matrix(0.535171,0,0,0.519467,551.737,441.514)">
                            <g transform="matrix(1,0,0,1,-182,150)">
                                <path d="M850,536C932.042,530.361 986.935,583.665 999,639.5C1001.74,652.16 1000.46,672.461 993.882,683.939C985.929,697.818 970.685,702.493 951.408,713.139C925.615,727.383 890.809,737.995 850,743C768.376,753.011 704.489,696.517 701,639.5C697.551,583.135 730.34,544.225 850,536Z" style="fill:rgb(185,219,255);stroke:black;stroke-width:6.93px;"/>
                            </g>
                            <g transform="matrix(1,0,0,1,19,-24)">
                                <ellipse cx="681" cy="792" rx="61" ry="49" style="fill:rgb(81,116,153);"/>
                            </g>
                        </g>
                        <g id="Cell66" serif:id="Cell" transform="matrix(0.535171,0,0,0.519467,837.042,303.453)">
                            <g transform="matrix(1,0,0,1,-182,150)">
                                <path d="M850,536C932.042,530.361 986.935,583.665 999,639.5C1001.74,652.16 1000.46,672.461 993.882,683.939C985.929,697.818 970.685,702.493 951.408,713.139C925.615,727.383 890.809,737.995 850,743C768.376,753.011 704.489,696.517 701,639.5C697.551,583.135 730.34,544.225 850,536Z" style="fill:rgb(185,219,255);stroke:black;stroke-width:6.93px;"/>
                            </g>
                            <g transform="matrix(1,0,0,1,19,-24)">
                                <ellipse cx="681" cy="792" rx="61" ry="49" style="fill:rgb(81,116,153);"/>
                            </g>
                        </g>
                        <g id="Cell67" serif:id="Cell" transform="matrix(0.535171,0,0,0.519467,696.481,236.859)">
                            <g transform="matrix(1,0,0,1,-182,150)">
                                <path d="M850,536C932.042,530.361 986.935,583.665 999,639.5C1001.74,652.16 1000.46,672.461 993.882,683.939C985.929,697.818 970.685,702.493 951.408,713.139C925.615,727.383 890.809,737.995 850,743C768.376,753.011 704.489,696.517 701,639.5C697.551,583.135 730.34,544.225 850,536Z" style="fill:rgb(185,219,255);stroke:black;stroke-width:6.93px;"/>
                            </g>
                            <g transform="matrix(1,0,0,1,19,-24)">
                                <ellipse cx="681" cy="792" rx="61" ry="49" style="fill:rgb(81,116,153);"/>
                            </g>
                        </g>
                        <g id="Cell68" serif:id="Cell" transform="matrix(0.535171,0,0,0.519467,517.375,323.176)">
                            <g transform="matrix(1,0,0,1,-182,150)">
                                <path d="M850,536C932.042,530.361 986.935,583.665 999,639.5C1001.74,652.16 1000.46,672.461 993.882,683.939C985.929,697.818 970.685,702.493 951.408,713.139C925.615,727.383 890.809,737.995 850,743C768.376,753.011 704.489,696.517 701,639.5C697.551,583.135 730.34,544.225 850,536Z" style="fill:rgb(185,219,255);stroke:black;stroke-width:6.93px;"/>
                            </g>
                            <g transform="matrix(1,0,0,1,19,-24)">
                                <ellipse cx="681" cy="792" rx="61" ry="49" style="fill:rgb(81,116,153);"/>
                            </g>
                        </g>
                    </g>
                    <g transform="matrix(0.233648,0,0,0.233648,1368.89,520.768)">
                        <g id="Cell69" serif:id="Cell" transform="matrix(0.513756,0,0,0.513756,1210.48,340.775)">
                            <g transform="matrix(1,0,0,1,-182,150)">
                                <path d="M850,536C932.042,530.361 986.935,583.665 999,639.5C1001.74,652.16 1000.46,672.461 993.882,683.939C985.929,697.818 970.685,702.493 951.408,713.139C925.615,727.383 890.809,737.995 850,743C768.376,753.011 704.489,696.517 701,639.5C697.551,583.135 730.34,544.225 850,536Z" style="fill:rgb(255,190,190);stroke:black;stroke-width:8.57px;"/>
                            </g>
                            <g transform="matrix(1.54569,0,0,1.40416,-385.902,-324.289)">
                                <ellipse cx="681" cy="792" rx="61" ry="49" style="fill:rgb(162,78,78);"/>
                            </g>
                        </g>
                        <g id="Cell70" serif:id="Cell" transform="matrix(0.558103,0,0,0.558103,1370.48,237.371)">
                            <g transform="matrix(1,0,0,1,-182,150)">
                                <path d="M850,536C932.042,530.361 986.935,583.665 999,639.5C1001.74,652.16 1000.46,672.461 993.882,683.939C985.929,697.818 970.685,702.493 951.408,713.139C925.615,727.383 890.809,737.995 850,743C768.376,753.011 704.489,696.517 701,639.5C697.551,583.135 730.34,544.225 850,536Z" style="fill:rgb(255,190,190);stroke:black;stroke-width:7.89px;"/>
                            </g>
                            <g transform="matrix(1.55522,0,0,1.64019,-392.971,-499.661)">
                                <ellipse cx="681" cy="792" rx="61" ry="49" style="fill:rgb(162,78,78);"/>
                            </g>
                        </g>
                        <g id="Cell71" serif:id="Cell" transform="matrix(0.558103,0,0,0.558103,1120.48,460.371)">
                            <g transform="matrix(1,0,0,1,-182,150)">
                                <path d="M850,536C932.042,530.361 986.935,583.665 999,639.5C1001.74,652.16 1000.46,672.461 993.882,683.939C985.929,697.818 970.685,702.493 951.408,713.139C925.615,727.383 890.809,737.995 850,743C768.376,753.011 704.489,696.517 701,639.5C697.551,583.135 730.34,544.225 850,536Z" style="fill:rgb(255,190,190);stroke:black;stroke-width:7.89px;"/>
                            </g>
                            <g transform="matrix(1.55522,0,0,1.64019,-392.971,-499.661)">
                                <ellipse cx="681" cy="792" rx="61" ry="49" style="fill:rgb(162,78,78);"/>
                            </g>
                        </g>
                        <g id="Cell72" serif:id="Cell" transform="matrix(0.558103,0,0,0.558103,1531.48,296.371)">
                            <g transform="matrix(1,0,0,1,-182,150)">
                                <path d="M850,536C932.042,530.361 986.935,583.665 999,639.5C1001.74,652.16 1000.46,672.461 993.882,683.939C985.929,697.818 970.685,702.493 951.408,713.139C925.615,727.383 890.809,737.995 850,743C768.376,753.011 704.489,696.517 701,639.5C697.551,583.135 730.34,544.225 850,536Z" style="fill:rgb(255,190,190);stroke:black;stroke-width:7.89px;"/>
                            </g>
                            <g transform="matrix(1.55522,0,0,1.64019,-392.971,-499.661)">
                                <ellipse cx="681" cy="792" rx="61" ry="49" style="fill:rgb(162,78,78);"/>
                            </g>
                        </g>
                        <g id="Cell73" serif:id="Cell" transform="matrix(0.705649,0,0,0.705649,1243.94,264.215)">
                            <g transform="matrix(1,0,0,1,-182,150)">
                                <path d="M850,536C932.042,530.361 986.935,583.665 999,639.5C1001.74,652.16 1000.46,672.461 993.882,683.939C985.929,697.818 970.685,702.493 951.408,713.139C925.615,727.383 890.809,737.995 850,743C768.376,753.011 704.489,696.517 701,639.5C697.551,583.135 730.34,544.225 850,536Z" style="fill:rgb(255,190,190);stroke:black;stroke-width:6.24px;"/>
                            </g>
                            <g transform="matrix(1.66249,0,0,1.53647,-472.565,-422.6)">
                                <ellipse cx="681" cy="792" rx="61" ry="49" style="fill:rgb(162,78,78);"/>
                            </g>
                        </g>
                    </g>
                    <g transform="matrix(1,0,0,1,621.171,292.281)">
                        <g transform="matrix(33.3333,0,0,33.3333,1045.34,421.861)">
                        </g>
                        <text x="999px" y="421.861px" style="font-family:'Arial-BoldMT', 'Arial', sans-serif;font-weight:700;font-size:33.333px;">vs.</text>
                    </g>
                    <g transform="matrix(1,0,0,1,863.576,292.281)">
                        <g transform="matrix(33.3333,0,0,33.3333,1018.47,421.861)">
                        </g>
                        <text x="999px" y="421.861px" style="font-family:'Arial-BoldMT', 'Arial', sans-serif;font-weight:700;font-size:33.333px;">+</text>
                    </g>
                </g>
                <g transform="matrix(1,0,0,1,65.5324,144.093)">
                    <g transform="matrix(0.646394,0,0,0.646394,1619.71,149.964)">
                        <g id="Cell74" serif:id="Cell" transform="matrix(0.202012,0,0,0.202012,401.652,733.342)">
                            <g transform="matrix(1,0,0,1,-182,150)">
                                <path d="M850,536C932.042,530.361 986.935,583.665 999,639.5C1001.74,652.16 1000.46,672.461 993.882,683.939C985.929,697.818 970.685,702.493 951.408,713.139C925.615,727.383 890.809,737.995 850,743C768.376,753.011 704.489,696.517 701,639.5C697.551,583.135 730.34,544.225 850,536Z" style="fill:rgb(133,153,251);stroke:black;stroke-width:7.88px;"/>
                            </g>
                            <g transform="matrix(1,0,0,1,19,-24)">
                                <ellipse cx="681" cy="792" rx="61" ry="49" style="fill:rgb(76,93,178);"/>
                            </g>
                        </g>
                        <g id="Cell75" serif:id="Cell" transform="matrix(0.202012,0,0,0.202012,474.578,727.685)">
                            <g transform="matrix(1,0,0,1,-182,150)">
                                <path d="M850,536C932.042,530.361 986.935,583.665 999,639.5C1001.74,652.16 1000.46,672.461 993.882,683.939C985.929,697.818 970.685,702.493 951.408,713.139C925.615,727.383 890.809,737.995 850,743C768.376,753.011 704.489,696.517 701,639.5C697.551,583.135 730.34,544.225 850,536Z" style="fill:rgb(133,153,251);stroke:black;stroke-width:7.88px;"/>
                            </g>
                            <g transform="matrix(1,0,0,1,19,-24)">
                                <ellipse cx="681" cy="792" rx="61" ry="49" style="fill:rgb(76,93,178);"/>
                            </g>
                        </g>
                        <g id="Cell76" serif:id="Cell" transform="matrix(0.202012,0,0,0.202012,495.183,685.869)">
                            <g transform="matrix(1,0,0,1,-182,150)">
                                <path d="M850,536C932.042,530.361 986.935,583.665 999,639.5C1001.74,652.16 1000.46,672.461 993.882,683.939C985.929,697.818 970.685,702.493 951.408,713.139C925.615,727.383 890.809,737.995 850,743C768.376,753.011 704.489,696.517 701,639.5C697.551,583.135 730.34,544.225 850,536Z" style="fill:rgb(133,153,251);stroke:black;stroke-width:7.88px;"/>
                            </g>
                            <g transform="matrix(1,0,0,1,19,-24)">
                                <ellipse cx="681" cy="792" rx="61" ry="49" style="fill:rgb(76,93,178);"/>
                            </g>
                        </g>
                        <g id="Cell77" serif:id="Cell" transform="matrix(0.202012,0,0,0.202012,346.705,707.08)">
                            <g transform="matrix(1,0,0,1,-182,150)">
                                <path d="M850,536C932.042,530.361 986.935,583.665 999,639.5C1001.74,652.16 1000.46,672.461 993.882,683.939C985.929,697.818 970.685,702.493 951.408,713.139C925.615,727.383 890.809,737.995 850,743C768.376,753.011 704.489,696.517 701,639.5C697.551,583.135 730.34,544.225 850,536Z" style="fill:rgb(133,153,251);stroke:black;stroke-width:7.88px;"/>
                            </g>
                            <g transform="matrix(1,0,0,1,19,-24)">
                                <ellipse cx="681" cy="792" rx="61" ry="49" style="fill:rgb(76,93,178);"/>
                            </g>
                        </g>
                        <g id="Cell78" serif:id="Cell" transform="matrix(0.202012,0,0,0.202012,432.762,688.091)">
                            <g transform="matrix(1,0,0,1,-182,150)">
                                <path d="M850,536C932.042,530.361 986.935,583.665 999,639.5C1001.74,652.16 1000.46,672.461 993.882,683.939C985.929,697.818 970.685,702.493 951.408,713.139C925.615,727.383 890.809,737.995 850,743C768.376,753.011 704.489,696.517 701,639.5C697.551,583.135 730.34,544.225 850,536Z" style="fill:rgb(133,153,251);stroke:black;stroke-width:7.88px;"/>
                            </g>
                            <g transform="matrix(1,0,0,1,19,-24)">
                                <ellipse cx="681" cy="792" rx="61" ry="49" style="fill:rgb(76,93,178);"/>
                            </g>
                        </g>
                        <g id="Cell79" serif:id="Cell" transform="matrix(0.160066,0,0,0.160066,396.948,694.488)">
                            <g transform="matrix(1,0,0,1,-182,150)">
                                <path d="M850,536C932.042,530.361 986.935,583.665 999,639.5C1001.74,652.16 1000.46,672.461 993.882,683.939C985.929,697.818 970.685,702.493 951.408,713.139C925.615,727.383 890.809,737.995 850,743C768.376,753.011 704.489,696.517 701,639.5C697.551,583.135 730.34,544.225 850,536Z" style="fill:rgb(133,153,251);stroke:black;stroke-width:9.95px;"/>
                            </g>
                            <g transform="matrix(1,0,0,1,19,-24)">
                                <ellipse cx="681" cy="792" rx="61" ry="49" style="fill:rgb(76,93,178);"/>
                            </g>
                        </g>
                    </g>
                    <g transform="matrix(0.281451,0,0,0.281451,1228.51,494.333)">
                        <g id="Cell80" serif:id="Cell" transform="matrix(0.535171,0,0,0.519467,688.422,377.349)">
                            <g transform="matrix(1,0,0,1,-182,150)">
                                <path d="M850,536C932.042,530.361 986.935,583.665 999,639.5C1001.74,652.16 1000.46,672.461 993.882,683.939C985.929,697.818 970.685,702.493 951.408,713.139C925.615,727.383 890.809,737.995 850,743C768.376,753.011 704.489,696.517 701,639.5C697.551,583.135 730.34,544.225 850,536Z" style="fill:rgb(185,219,255);stroke:black;stroke-width:6.93px;"/>
                            </g>
                            <g transform="matrix(1,0,0,1,19,-24)">
                                <ellipse cx="681" cy="792" rx="61" ry="49" style="fill:rgb(81,116,153);"/>
                            </g>
                        </g>
                        <g id="Cell81" serif:id="Cell" transform="matrix(0.535171,0,0,0.519467,551.737,441.514)">
                            <g transform="matrix(1,0,0,1,-182,150)">
                                <path d="M850,536C932.042,530.361 986.935,583.665 999,639.5C1001.74,652.16 1000.46,672.461 993.882,683.939C985.929,697.818 970.685,702.493 951.408,713.139C925.615,727.383 890.809,737.995 850,743C768.376,753.011 704.489,696.517 701,639.5C697.551,583.135 730.34,544.225 850,536Z" style="fill:rgb(185,219,255);stroke:black;stroke-width:6.93px;"/>
                            </g>
                            <g transform="matrix(1,0,0,1,19,-24)">
                                <ellipse cx="681" cy="792" rx="61" ry="49" style="fill:rgb(81,116,153);"/>
                            </g>
                        </g>
                        <g id="Cell82" serif:id="Cell" transform="matrix(0.535171,0,0,0.519467,837.042,303.453)">
                            <g transform="matrix(1,0,0,1,-182,150)">
                                <path d="M850,536C932.042,530.361 986.935,583.665 999,639.5C1001.74,652.16 1000.46,672.461 993.882,683.939C985.929,697.818 970.685,702.493 951.408,713.139C925.615,727.383 890.809,737.995 850,743C768.376,753.011 704.489,696.517 701,639.5C697.551,583.135 730.34,544.225 850,536Z" style="fill:rgb(185,219,255);stroke:black;stroke-width:6.93px;"/>
                            </g>
                            <g transform="matrix(1,0,0,1,19,-24)">
                                <ellipse cx="681" cy="792" rx="61" ry="49" style="fill:rgb(81,116,153);"/>
                            </g>
                        </g>
                        <g id="Cell83" serif:id="Cell" transform="matrix(0.535171,0,0,0.519467,696.481,236.859)">
                            <g transform="matrix(1,0,0,1,-182,150)">
                                <path d="M850,536C932.042,530.361 986.935,583.665 999,639.5C1001.74,652.16 1000.46,672.461 993.882,683.939C985.929,697.818 970.685,702.493 951.408,713.139C925.615,727.383 890.809,737.995 850,743C768.376,753.011 704.489,696.517 701,639.5C697.551,583.135 730.34,544.225 850,536Z" style="fill:rgb(185,219,255);stroke:black;stroke-width:6.93px;"/>
                            </g>
                            <g transform="matrix(1,0,0,1,19,-24)">
                                <ellipse cx="681" cy="792" rx="61" ry="49" style="fill:rgb(81,116,153);"/>
                            </g>
                        </g>
                        <g id="Cell84" serif:id="Cell" transform="matrix(0.535171,0,0,0.519467,517.375,323.176)">
                            <g transform="matrix(1,0,0,1,-182,150)">
                                <path d="M850,536C932.042,530.361 986.935,583.665 999,639.5C1001.74,652.16 1000.46,672.461 993.882,683.939C985.929,697.818 970.685,702.493 951.408,713.139C925.615,727.383 890.809,737.995 850,743C768.376,753.011 704.489,696.517 701,639.5C697.551,583.135 730.34,544.225 850,536Z" style="fill:rgb(185,219,255);stroke:black;stroke-width:6.93px;"/>
                            </g>
                            <g transform="matrix(1,0,0,1,19,-24)">
                                <ellipse cx="681" cy="792" rx="61" ry="49" style="fill:rgb(81,116,153);"/>
                            </g>
                        </g>
                    </g>
                    <g transform="matrix(0.233648,0,0,0.233648,1368.89,520.768)">
                        <g id="Cell85" serif:id="Cell" transform="matrix(0.513756,0,0,0.513756,1210.48,340.775)">
                            <g transform="matrix(1,0,0,1,-182,150)">
                                <path d="M850,536C932.042,530.361 986.935,583.665 999,639.5C1001.74,652.16 1000.46,672.461 993.882,683.939C985.929,697.818 970.685,702.493 951.408,713.139C925.615,727.383 890.809,737.995 850,743C768.376,753.011 704.489,696.517 701,639.5C697.551,583.135 730.34,544.225 850,536Z" style="fill:rgb(255,190,190);stroke:black;stroke-width:8.57px;"/>
                            </g>
                            <g transform="matrix(1.54569,0,0,1.40416,-385.902,-324.289)">
                                <ellipse cx="681" cy="792" rx="61" ry="49" style="fill:rgb(162,78,78);"/>
                            </g>
                        </g>
                        <g id="Cell86" serif:id="Cell" transform="matrix(0.558103,0,0,0.558103,1370.48,237.371)">
                            <g transform="matrix(1,0,0,1,-182,150)">
                                <path d="M850,536C932.042,530.361 986.935,583.665 999,639.5C1001.74,652.16 1000.46,672.461 993.882,683.939C985.929,697.818 970.685,702.493 951.408,713.139C925.615,727.383 890.809,737.995 850,743C768.376,753.011 704.489,696.517 701,639.5C697.551,583.135 730.34,544.225 850,536Z" style="fill:rgb(255,190,190);stroke:black;stroke-width:7.89px;"/>
                            </g>
                            <g transform="matrix(1.55522,0,0,1.64019,-392.971,-499.661)">
                                <ellipse cx="681" cy="792" rx="61" ry="49" style="fill:rgb(162,78,78);"/>
                            </g>
                        </g>
                        <g id="Cell87" serif:id="Cell" transform="matrix(0.558103,0,0,0.558103,1120.48,460.371)">
                            <g transform="matrix(1,0,0,1,-182,150)">
                                <path d="M850,536C932.042,530.361 986.935,583.665 999,639.5C1001.74,652.16 1000.46,672.461 993.882,683.939C985.929,697.818 970.685,702.493 951.408,713.139C925.615,727.383 890.809,737.995 850,743C768.376,753.011 704.489,696.517 701,639.5C697.551,583.135 730.34,544.225 850,536Z" style="fill:rgb(255,190,190);stroke:black;stroke-width:7.89px;"/>
                            </g>
                            <g transform="matrix(1.55522,0,0,1.64019,-392.971,-499.661)">
                                <ellipse cx="681" cy="792" rx="61" ry="49" style="fill:rgb(162,78,78);"/>
                            </g>
                        </g>
                        <g id="Cell88" serif:id="Cell" transform="matrix(0.558103,0,0,0.558103,1531.48,296.371)">
                            <g transform="matrix(1,0,0,1,-182,150)">
                                <path d="M850,536C932.042,530.361 986.935,583.665 999,639.5C1001.74,652.16 1000.46,672.461 993.882,683.939C985.929,697.818 970.685,702.493 951.408,713.139C925.615,727.383 890.809,737.995 850,743C768.376,753.011 704.489,696.517 701,639.5C697.551,583.135 730.34,544.225 850,536Z" style="fill:rgb(255,190,190);stroke:black;stroke-width:7.89px;"/>
                            </g>
                            <g transform="matrix(1.55522,0,0,1.64019,-392.971,-499.661)">
                                <ellipse cx="681" cy="792" rx="61" ry="49" style="fill:rgb(162,78,78);"/>
                            </g>
                        </g>
                        <g id="Cell89" serif:id="Cell" transform="matrix(0.705649,0,0,0.705649,1243.94,264.215)">
                            <g transform="matrix(1,0,0,1,-182,150)">
                                <path d="M850,536C932.042,530.361 986.935,583.665 999,639.5C1001.74,652.16 1000.46,672.461 993.882,683.939C985.929,697.818 970.685,702.493 951.408,713.139C925.615,727.383 890.809,737.995 850,743C768.376,753.011 704.489,696.517 701,639.5C697.551,583.135 730.34,544.225 850,536Z" style="fill:rgb(255,190,190);stroke:black;stroke-width:6.24px;"/>
                            </g>
                            <g transform="matrix(1.66249,0,0,1.53647,-472.565,-422.6)">
                                <ellipse cx="681" cy="792" rx="61" ry="49" style="fill:rgb(162,78,78);"/>
                            </g>
                        </g>
                    </g>
                    <g transform="matrix(1,0,0,1,621.171,292.281)">
                        <g transform="matrix(33.3333,0,0,33.3333,1045.34,421.861)">
                        </g>
                        <text x="999px" y="421.861px" style="font-family:'Arial-BoldMT', 'Arial', sans-serif;font-weight:700;font-size:33.333px;">vs.</text>
                    </g>
                    <g transform="matrix(1,0,0,1,863.576,292.281)">
                        <g transform="matrix(33.3333,0,0,33.3333,1018.47,421.861)">
                        </g>
                        <text x="999px" y="421.861px" style="font-family:'Arial-BoldMT', 'Arial', sans-serif;font-weight:700;font-size:33.333px;">+</text>
                    </g>
                </g>
                <g transform="matrix(1,0,0,1,448.913,546.715)">
                    <text x="1012.64px" y="429.921px" style="font-family:'Arial-BoldMT', 'Arial', sans-serif;font-weight:700;font-size:44.593px;">In all Groups, Identify Genes that</text>
                    <text x="1052.31px" y="475.972px" style="font-family:'Arial-BoldMT', 'Arial', sans-serif;font-weight:700;font-size:44.593px;">Distinguish Each Group from</text>
                    <g transform="matrix(44.593,0,0,44.593,1480.95,522.024)">
                    </g>
                    <text x="1243.05px" y="522.024px" style="font-family:'Arial-BoldMT', 'Arial', sans-serif;font-weight:700;font-size:44.593px;">Other Cells</text>
                </g>
            </g>
        </g>
    </g>
</svg>
